<?xml version="1.0" standalone="no"?>
<!DOCTYPE svg PUBLIC "-//W3C//DTD SVG 1.1//EN" 
  "http://www.w3.org/Graphics/SVG/1.1/DTD/svg11.dtd">
<svg width="180.0000457763672mm" height="38.0000076293945mm" viewBox="0 0 180.0000457763672 38.0000076293945"
     xmlns="http://www.w3.org/2000/svg" version="1.1">
<desc>Outline to SVG export</desc>
	<path fill-rule="evenodd" fill="#000000" stroke="#555555" stroke-width="0" opacity="1" d="M 0.0,37.999999749886115 L 1.203120770650573e-08,37.99999999025024 L 1.1376578509771039e-07,37.99999999375612 L 2.424542330035587e-07,38.00000000000001 L 180.0000456107307,38.000007629394524 L 180.00004576605147,38.000007619240385 L 180.00004576657128,38.000007605149065 L 180.000045771361,38.00000749253769 L 180.0000457763672,38.00000738863236 L 180.0000457763672,1.5223137258843422e-07 L 180.00004577220935,9.790605455036864e-08 L 180.00004576663505,9.844796419286683e-09 L 180.00004576657173,9.67147386928108e-09 L 180.00004566348014,6.184588990110828e-09 L 180.00004553528672,2.0436638382308423e-14 L 2.4665637487889673e-07,1.5258789041590685e-05 L 1.1332606419075688e-08,1.527040495015126e-05 L 0.0,1.550263706896124e-05 L 0.0,37.999999749886115 z M 166.5147250173207,11.180550564015126 L 166.51472477889396,11.180549612143858 L 166.51472463490768,11.180548641487293 L 166.48590097545812,10.88791754518058 L 166.4859009272987,10.887916564941406 L 166.48590097545812,10.887915584702233 L 166.51472463490768,10.595284488395519 L 166.51472477889396,10.595283517738954 L 166.5147250173207,10.595282565867686 L 166.60008211157017,10.31388949228849 L 166.60008244216158,10.31388856831972 L 166.60008286172382,10.313887681202758 L 166.73869277292738,10.054558669108948 L 166.73869327755358,10.054557827186924 L 166.73869386228975,10.054557038793693 L 166.9252465677202,9.827256010129839 L 166.92524722657663,9.827255283217307 L 166.92524795349155,9.82725462436348 L 167.15254135272255,9.640709548349866 L 167.15254214115376,9.640708963592534 L 167.15254298311785,9.640708458952655 L 167.41187962464448,9.502098547701308 L 167.4118805116753,9.502098128187738 L 167.4118814355503,9.502097797627181 L 167.6932668797982,9.416740703374009 L 167.6932678317046,9.416740464932754 L 167.69326880239808,9.416740320939107 L 167.98589989866707,9.387916661493279 L 167.98590087890625,9.387916613333871 L 167.98590185914543,9.387916661493279 L 168.27853295541442,9.416740320939107 L 168.2785339261079,9.416740464932754 L 168.2785348780143,9.416740703374009 L 168.5599203222622,9.502097797627181 L 168.5599212461372,9.502098128187738 L 168.55992213316802,9.502098547701308 L 168.81925877469465,9.640708458952655 L 168.81925961665874,9.640708963592534 L 168.81926040508995,9.640709548349866 L 169.04655380432095,9.82725462436348 L 169.04655453123587,9.827255283217307 L 169.0465551900923,9.827256010129839 L 169.23310789552275,10.054557038793693 L 169.23310848025892,10.054557827186924 L 169.23310898488512,10.054558669108948 L 169.37171889608868,10.313887681202758 L 169.37171931565092,10.31388856831972 L 169.37171964624233,10.31388949228849 L 169.4570767404918,10.595282565867686 L 169.45707697891854,10.595283517738954 L 169.45707712290482,10.595284488395519 L 169.48590078235438,10.887915584702233 L 169.4859008305138,10.887916564941406 L 169.48590078235438,10.88791754518058 L 169.45707712290482,11.180548641487293 L 169.45707697891854,11.180549612143858 L 169.4570767404918,11.180550564015126 L 169.37171964624233,11.461943637594322 L 169.37171931565092,11.461944561563092 L 169.37171889608868,11.461945448680055 L 169.23310898488512,11.721274460773865 L 169.23310848025892,11.721275302695888 L 169.23310789552275,11.72127609108912 L 169.0465551900923,11.948577119752974 L 169.04655453123587,11.948577846665506 L 169.04655380432095,11.948578505519333 L 168.81926040508995,12.135123581532946 L 168.81925961665874,12.135124166290279 L 168.81925877469465,12.135124670930157 L 168.55992213316802,12.273734582181504 L 168.5599212461372,12.273735001695075 L 168.5599203222622,12.273735332255631 L 168.2785348780143,12.359092426508804 L 168.2785339261079,12.359092664950058 L 168.27853295541442,12.359092808943705 L 167.98590185914543,12.387916468389534 L 167.98590087890625,12.387916516548941 L 167.98589989866707,12.387916468389534 L 167.69326880239808,12.359092808943705 L 167.6932678317046,12.359092664950058 L 167.6932668797982,12.359092426508804 L 167.4118814355503,12.273735332255631 L 167.4118805116753,12.273735001695075 L 167.41187962464448,12.273734582181504 L 167.15254298311785,12.135124670930157 L 167.15254214115376,12.135124166290279 L 167.15254135272255,12.135123581532946 L 166.92524795349155,11.948578505519333 L 166.92524722657663,11.948577846665506 L 166.9252465677202,11.948577119752974 L 166.73869386228975,11.72127609108912 L 166.73869327755358,11.721275302695888 L 166.73869277292738,11.721274460773865 L 166.60008286172382,11.461945448680055 L 166.60008244216158,11.461944561563092 L 166.60008211157017,11.461943637594322 L 166.5147250173207,11.180550564015126 z M 149.80032338978674,20.119347598784948 L 149.80032353378039,20.119346628091453 L 149.80032377222162,20.119345676185045 L 149.88568086647487,19.83796023193688 L 149.88568119703544,19.837959308061887 L 149.88568161654902,19.837958421031082 L 150.0242915277917,19.578621779520684 L 150.02429203244154,19.57862093754164 L 150.0242926172117,19.578620149097567 L 150.21084532260298,19.351319120481406 L 150.2108459814594,19.351318393568874 L 150.21084670837433,19.351317734715046 L 150.43814010760536,19.164772658701434 L 150.43814089603657,19.1647720739441 L 150.43814173800067,19.16477156930422 L 150.6974783795273,19.026161658052867 L 150.6974792665581,19.0261612385393 L 150.6974801904331,19.026160907978742 L 150.978865634681,18.94080381372557 L 150.9788665865874,18.940803575284313 L 150.9788675572809,18.940803431290668 L 151.27149865354988,18.91197977184484 L 151.27149963378906,18.911979723685434 L 151.27150061402824,18.91197977184484 L 151.56413171029723,18.940803431290668 L 151.56413268099072,18.940803575284313 L 151.56413363289712,18.94080381372557 L 151.845519077145,19.026160907978742 L 151.84552000102002,19.0261612385393 L 151.84552088805083,19.026161658052867 L 152.10485752957746,19.16477156930422 L 152.10485837154155,19.1647720739441 L 152.10485915997276,19.164772658701434 L 152.3321525592038,19.351317734715046 L 152.3321532861187,19.351318393568874 L 152.33215394497515,19.351319120481406 L 152.51870665036643,19.578620149097567 L 152.5187072351366,19.57862093754164 L 152.51870773978644,19.578621779520684 L 152.6573176510291,19.837958421031082 L 152.6573180705427,19.837959308061887 L 152.65731840110325,19.83796023193688 L 152.7426754953565,20.119345676185045 L 152.74267573379774,20.119346628091453 L 152.74267587779138,20.119347598784948 L 152.7714995372372,20.411978695053794 L 152.7714995853966,20.41197967529297 L 152.7714995372372,20.411980655532144 L 152.74267587779138,20.70461175180099 L 152.74267573379774,20.704612722494485 L 152.7426754953565,20.704613674400893 L 152.65731840110325,20.985999118649058 L 152.6573180705427,20.98600004252405 L 152.6573176510291,20.986000929554855 L 152.51870773978644,21.245337571065253 L 152.5187072351366,21.245338413044298 L 152.51870665036643,21.24533920148837 L 152.33215394497515,21.47264023010453 L 152.3321532861187,21.472640957017063 L 152.3321525592038,21.47264161587089 L 152.10485915997276,21.659186691884504 L 152.10485837154155,21.659187276641838 L 152.10485752957746,21.659187781281716 L 151.84552088805083,21.79779769253307 L 151.84552000102002,21.79779811204664 L 151.845519077145,21.797798442607196 L 151.56413363289712,21.883155536860368 L 151.56413268099072,21.883155775301624 L 151.56413171029723,21.88315591929527 L 151.27150061402824,21.911979578741096 L 151.27149963378906,21.911979626900504 L 151.27149865354988,21.911979578741096 L 150.9788675572809,21.88315591929527 L 150.9788665865874,21.883155775301624 L 150.978865634681,21.883155536860368 L 150.6974801904331,21.797798442607196 L 150.6974792665581,21.79779811204664 L 150.6974783795273,21.79779769253307 L 150.43814173800067,21.659187781281716 L 150.43814089603657,21.659187276641838 L 150.43814010760536,21.659186691884504 L 150.21084670837433,21.47264161587089 L 150.2108459814594,21.472640957017063 L 150.21084532260298,21.47264023010453 L 150.0242926172117,21.24533920148837 L 150.02429203244154,21.245338413044298 L 150.0242915277917,21.245337571065253 L 149.88568161654902,20.986000929554855 L 149.88568119703544,20.98600004252405 L 149.88568086647487,20.985999118649058 L 149.80032377222162,20.704613674400893 L 149.80032353378039,20.704612722494485 L 149.80032338978674,20.70461175180099 L 149.77149973034093,20.411980655532144 L 149.7714996821815,20.41197967529297 L 149.77149973034093,20.411978695053794 L 149.80032338978674,20.119347598784948 z M 149.88566560766392,10.31388949228849 L 149.88566593825533,10.31388856831972 L 149.88566635781757,10.313887681202758 L 150.02427626902113,10.054558669108948 L 150.02427677364733,10.054557827186924 L 150.0242773583835,10.054557038793693 L 150.21083006381394,9.827256010129839 L 150.21083072267038,9.827255283217307 L 150.2108314495853,9.82725462436348 L 150.4381248488163,9.640709548349866 L 150.4381256372475,9.640708963592534 L 150.4381264792116,9.640708458952655 L 150.69746312073823,9.502098547701308 L 150.69746400776904,9.502098128187738 L 150.69746493164405,9.502097797627181 L 150.97885037589194,9.416740703374009 L 150.97885132779834,9.416740464932754 L 150.97885229849183,9.416740320939107 L 151.27148339476082,9.387916661493279 L 151.271484375,9.387916613333871 L 151.27148535523918,9.387916661493279 L 151.56411645150817,9.416740320939107 L 151.56411742220166,9.416740464932754 L 151.56411837410806,9.416740703374009 L 151.84550381835595,9.502097797627181 L 151.84550474223096,9.502098128187738 L 151.84550562926177,9.502098547701308 L 152.1048422707884,9.640708458952655 L 152.1048431127525,9.640708963592534 L 152.1048439011837,9.640709548349866 L 152.3321373004147,9.82725462436348 L 152.33213802732962,9.827255283217307 L 152.33213868618606,9.827256010129839 L 152.5186913916165,10.054557038793693 L 152.51869197635267,10.054557827186924 L 152.51869248097887,10.054558669108948 L 152.65730239218243,10.313887681202758 L 152.65730281174467,10.31388856831972 L 152.65730314233608,10.31388949228849 L 152.74266023658555,10.595282565867686 L 152.7426604750123,10.595283517738954 L 152.74266061899857,10.595284488395519 L 152.77148427844813,10.887915584702233 L 152.77148432660755,10.887916564941406 L 152.77148427844813,10.88791754518058 L 152.74266061899857,11.180548641487293 L 152.7426604750123,11.180549612143858 L 152.74266023658555,11.180550564015126 L 152.65730314233608,11.461943637594322 L 152.65730281174467,11.461944561563092 L 152.65730239218243,11.461945448680055 L 152.51869248097887,11.721274460773865 L 152.51869197635267,11.721275302695888 L 152.5186913916165,11.72127609108912 L 152.33213868618606,11.948577119752974 L 152.33213802732962,11.948577846665506 L 152.3321373004147,11.948578505519333 L 152.1048439011837,12.135123581532946 L 152.1048431127525,12.135124166290279 L 152.1048422707884,12.135124670930157 L 151.84550562926177,12.273734582181504 L 151.84550474223096,12.273735001695075 L 151.84550381835595,12.273735332255631 L 151.56411837410806,12.359092426508804 L 151.56411742220166,12.359092664950058 L 151.56411645150817,12.359092808943705 L 151.27148535523918,12.387916468389534 L 151.271484375,12.387916516548941 L 151.27148339476082,12.387916468389534 L 150.97885229849183,12.359092808943705 L 150.97885132779834,12.359092664950058 L 150.97885037589194,12.359092426508804 L 150.69746493164405,12.273735332255631 L 150.69746400776904,12.273735001695075 L 150.69746312073823,12.273734582181504 L 150.4381264792116,12.135124670930157 L 150.4381256372475,12.135124166290279 L 150.4381248488163,12.135123581532946 L 150.2108314495853,11.948578505519333 L 150.21083072267038,11.948577846665506 L 150.21083006381394,11.948577119752974 L 150.0242773583835,11.72127609108912 L 150.02427677364733,11.721275302695888 L 150.02427626902113,11.721274460773865 L 149.88566635781757,11.461945448680055 L 149.88566593825533,11.461944561563092 L 149.88566560766392,11.461943637594322 L 149.80030851341445,11.180550564015126 L 149.8003082749877,11.180549612143858 L 149.80030813100143,11.180548641487293 L 149.77148447155187,10.88791754518058 L 149.77148442339245,10.887916564941406 L 149.77148447155187,10.887915584702233 L 149.80030813100143,10.595284488395519 L 149.8003082749877,10.595283517738954 L 149.80030851341445,10.595282565867686 L 149.88566560766392,10.31388949228849 z M 133.23432893774205,10.31388949228849 L 133.23432926833345,10.31388856831972 L 133.2343296878957,10.313887681202758 L 133.37293959909925,10.054558669108948 L 133.37294010372545,10.054557827186924 L 133.37294068846163,10.054557038793693 L 133.55949339389207,9.827256010129839 L 133.5594940527485,9.827255283217307 L 133.55949477966342,9.82725462436348 L 133.78678817889443,9.640709548349866 L 133.78678896732563,9.640708963592534 L 133.78678980928973,9.640708458952655 L 134.04612645081636,9.502098547701308 L 134.04612733784717,9.502098128187738 L 134.04612826172217,9.502097797627181 L 134.32751370597006,9.416740703374009 L 134.32751465787646,9.416740464932754 L 134.32751562856996,9.416740320939107 L 134.62014672483895,9.387916661493279 L 134.62014770507812,9.387916613333871 L 134.6201486853173,9.387916661493279 L 134.9127797815863,9.416740320939107 L 134.9127807522798,9.416740464932754 L 134.9127817041862,9.416740703374009 L 135.19416714843408,9.502097797627181 L 135.19416807230908,9.502098128187738 L 135.1941689593399,9.502098547701308 L 135.45350560086652,9.640708458952655 L 135.45350644283062,9.640708963592534 L 135.45350723126182,9.640709548349866 L 135.68080063049283,9.82725462436348 L 135.68080135740774,9.827255283217307 L 135.68080201626418,9.827256010129839 L 135.86735472169462,10.054557038793693 L 135.8673553064308,10.054557827186924 L 135.867355811057,10.054558669108948 L 136.00596572226056,10.313887681202758 L 136.0059661418228,10.31388856831972 L 136.0059664724142,10.31388949228849 L 136.09132356666368,10.595282565867686 L 136.0913238050904,10.595283517738954 L 136.0913239490767,10.595284488395519 L 136.12014760852625,10.887915584702233 L 136.12014765668567,10.887916564941406 L 136.12014760852625,10.88791754518058 L 136.0913239490767,11.180548641487293 L 136.0913238050904,11.180549612143858 L 136.09132356666368,11.180550564015126 L 136.0059664724142,11.461943637594322 L 136.0059661418228,11.461944561563092 L 136.00596572226056,11.461945448680055 L 135.867355811057,11.721274460773865 L 135.8673553064308,11.721275302695888 L 135.86735472169462,11.72127609108912 L 135.68080201626418,11.948577119752974 L 135.68080135740774,11.948577846665506 L 135.68080063049283,11.948578505519333 L 135.45350723126182,12.135123581532946 L 135.45350644283062,12.135124166290279 L 135.45350560086652,12.135124670930157 L 135.1941689593399,12.273734582181504 L 135.19416807230908,12.273735001695075 L 135.19416714843408,12.273735332255631 L 134.9127817041862,12.359092426508804 L 134.9127807522798,12.359092664950058 L 134.9127797815863,12.359092808943705 L 134.6201486853173,12.387916468389534 L 134.62014770507812,12.387916516548941 L 134.62014672483895,12.387916468389534 L 134.32751562856996,12.359092808943705 L 134.32751465787646,12.359092664950058 L 134.32751370597006,12.359092426508804 L 134.04612826172217,12.273735332255631 L 134.04612733784717,12.273735001695075 L 134.04612645081636,12.273734582181504 L 133.78678980928973,12.135124670930157 L 133.78678896732563,12.135124166290279 L 133.78678817889443,12.135123581532946 L 133.55949477966342,11.948578505519333 L 133.5594940527485,11.948577846665506 L 133.55949339389207,11.948577119752974 L 133.37294068846163,11.72127609108912 L 133.37294010372545,11.721275302695888 L 133.37293959909925,11.721274460773865 L 133.2343296878957,11.461945448680055 L 133.23432926833345,11.461944561563092 L 133.23432893774205,11.461943637594322 L 133.14897184349257,11.180550564015126 L 133.14897160506584,11.180549612143858 L 133.14897146107955,11.180548641487293 L 133.12014780163,10.88791754518058 L 133.12014775347058,10.887916564941406 L 133.12014780163,10.887915584702233 L 133.14897146107955,10.595284488395519 L 133.14897160506584,10.595283517738954 L 133.14897184349257,10.595282565867686 L 133.23432893774205,10.31388949228849 z M 116.43457021595864,20.11934759878481 L 116.43457035995229,20.11934662809131 L 116.43457059839355,20.119345676184906 L 116.51992769264672,19.837960231937004 L 116.51992802320727,19.83795930806201 L 116.51992844272084,19.837958421031207 L 116.6585383539636,19.578621779520635 L 116.65853885861348,19.578620937541594 L 116.65853944338363,19.578620149097517 L 116.84509214877484,19.351319120481442 L 116.84509280763129,19.351318393568913 L 116.84509353454618,19.35131773471508 L 117.0723869337773,19.16477265870139 L 117.07238772220853,19.164772073944057 L 117.07238856417263,19.16477156930418 L 117.33172520569916,19.026161658052878 L 117.33172609272997,19.026161238539306 L 117.33172701660496,19.026160907978753 L 117.61311246085289,18.94080381372557 L 117.61311341275929,18.940803575284313 L 117.61311438345278,18.940803431290668 L 117.90574547972176,18.91197977184484 L 117.90574645996094,18.911979723685434 L 117.90574744020012,18.91197977184484 L 118.1983785364691,18.940803431290668 L 118.19837950716258,18.940803575284313 L 118.19838045906899,18.94080381372557 L 118.47976590331692,19.026160907978753 L 118.47976682719191,19.026161238539306 L 118.47976771422272,19.026161658052878 L 118.73910435574925,19.16477156930418 L 118.73910519771334,19.164772073944057 L 118.73910598614458,19.16477265870139 L 118.9663993853757,19.35131773471508 L 118.96640011229059,19.351318393568913 L 118.96640077114704,19.351319120481442 L 119.15295347653824,19.578620149097517 L 119.15295406130839,19.578620937541594 L 119.15295456595827,19.578621779520635 L 119.29156447720104,19.837958421031207 L 119.2915648967146,19.83795930806201 L 119.29156522727516,19.837960231937004 L 119.37692232152833,20.119345676184906 L 119.37692255996959,20.11934662809131 L 119.37692270396323,20.11934759878481 L 119.40574636340907,20.411978695053794 L 119.40574641156847,20.41197967529297 L 119.40574636340907,20.411980655532144 L 119.37692270396323,20.704611751801128 L 119.37692255996959,20.704612722494627 L 119.37692232152833,20.70461367440103 L 119.29156522727516,20.985999118648934 L 119.2915648967146,20.986000042523926 L 119.29156447720104,20.98600092955473 L 119.15295456595827,21.245337571065303 L 119.15295406130839,21.245338413044344 L 119.15295347653824,21.24533920148842 L 118.96640077114704,21.472640230104496 L 118.96640011229059,21.472640957017024 L 118.9663993853757,21.472641615870856 L 118.73910598614458,21.659186691884546 L 118.73910519771334,21.65918727664188 L 118.73910435574925,21.65918778128176 L 118.47976771422272,21.79779769253306 L 118.47976682719191,21.79779811204663 L 118.47976590331692,21.797798442607185 L 118.19838045906899,21.883155536860368 L 118.19837950716258,21.883155775301624 L 118.1983785364691,21.88315591929527 L 117.90574744020012,21.911979578741096 L 117.90574645996094,21.911979626900504 L 117.90574547972176,21.911979578741096 L 117.61311438345278,21.88315591929527 L 117.61311341275929,21.883155775301624 L 117.61311246085289,21.883155536860368 L 117.33172701660496,21.797798442607185 L 117.33172609272997,21.79779811204663 L 117.33172520569916,21.79779769253306 L 117.07238856417263,21.65918778128176 L 117.07238772220853,21.65918727664188 L 117.0723869337773,21.659186691884546 L 116.84509353454618,21.472641615870856 L 116.84509280763129,21.472640957017024 L 116.84509214877484,21.472640230104496 L 116.65853944338363,21.24533920148842 L 116.65853885861348,21.245338413044344 L 116.6585383539636,21.245337571065303 L 116.51992844272084,20.98600092955473 L 116.51992802320727,20.986000042523926 L 116.51992769264672,20.985999118648934 L 116.43457059839355,20.70461367440103 L 116.43457035995229,20.704612722494627 L 116.43457021595864,20.704611751801128 L 116.40574655651281,20.411980655532144 L 116.4057465083534,20.41197967529297 L 116.40574655651281,20.411978695053794 L 116.43457021595864,20.11934759878481 z M 116.51991243383578,10.313889492288553 L 116.51991276442719,10.313888568319781 L 116.51991318398942,10.31388768120282 L 116.65852309519302,10.054558669108948 L 116.6585235998192,10.054557827186924 L 116.65852418455539,10.054557038793693 L 116.84507688998578,9.827256010129874 L 116.84507754884223,9.827255283217346 L 116.84507827575712,9.827254624363515 L 117.07237167498823,9.640709548349822 L 117.07237246341947,9.640708963592488 L 117.07237330538356,9.640708458952611 L 117.3317099469101,9.502098547701317 L 117.3317108339409,9.502098128187745 L 117.3317117578159,9.50209779762719 L 117.61309720206383,9.416740703374009 L 117.61309815397023,9.416740464932754 L 117.61309912466372,9.416740320939107 L 117.9057302209327,9.387916661493279 L 117.90573120117188,9.387916613333871 L 117.90573218141105,9.387916661493279 L 118.19836327768003,9.416740320939107 L 118.19836424837352,9.416740464932754 L 118.19836520027992,9.416740703374009 L 118.47975064452785,9.50209779762719 L 118.47975156840285,9.502098128187745 L 118.47975245543365,9.502098547701317 L 118.73908909696019,9.640708458952611 L 118.73908993892428,9.640708963592488 L 118.73909072735552,9.640709548349822 L 118.96638412658663,9.827254624363515 L 118.96638485350152,9.827255283217346 L 118.96638551235797,9.827256010129874 L 119.15293821778836,10.054557038793693 L 119.15293880252455,10.054557827186924 L 119.15293930715073,10.054558669108948 L 119.29154921835433,10.31388768120282 L 119.29154963791656,10.313888568319781 L 119.29154996850797,10.313889492288553 L 119.3769070627574,10.595282565867548 L 119.37690730118415,10.595283517738816 L 119.37690744517045,10.59528448839538 L 119.40573110462,10.887915584702233 L 119.40573115277941,10.887916564941406 L 119.40573110462,10.88791754518058 L 119.37690744517045,11.180548641487432 L 119.37690730118415,11.180549612143997 L 119.3769070627574,11.180550564015265 L 119.29154996850797,11.46194363759426 L 119.29154963791656,11.461944561563032 L 119.29154921835433,11.461945448679993 L 119.15293930715073,11.721274460773865 L 119.15293880252455,11.721275302695888 L 119.15293821778836,11.72127609108912 L 118.96638551235797,11.948577119752938 L 118.96638485350152,11.948577846665467 L 118.96638412658663,11.948578505519297 L 118.73909072735552,12.13512358153299 L 118.73908993892428,12.135124166290325 L 118.73908909696019,12.135124670930201 L 118.47975245543365,12.273734582181495 L 118.47975156840285,12.273735001695067 L 118.47975064452785,12.273735332255622 L 118.19836520027992,12.359092426508804 L 118.19836424837352,12.359092664950058 L 118.19836327768003,12.359092808943705 L 117.90573218141105,12.387916468389534 L 117.90573120117188,12.387916516548941 L 117.9057302209327,12.387916468389534 L 117.61309912466372,12.359092808943705 L 117.61309815397023,12.359092664950058 L 117.61309720206383,12.359092426508804 L 117.3317117578159,12.273735332255622 L 117.3317108339409,12.273735001695067 L 117.3317099469101,12.273734582181495 L 117.07237330538356,12.135124670930201 L 117.07237246341947,12.135124166290325 L 117.07237167498823,12.13512358153299 L 116.84507827575712,11.948578505519297 L 116.84507754884223,11.948577846665467 L 116.84507688998578,11.948577119752938 L 116.65852418455539,11.72127609108912 L 116.6585235998192,11.721275302695888 L 116.65852309519302,11.721274460773865 L 116.51991318398942,11.461945448679993 L 116.51991276442719,11.461944561563032 L 116.51991243383578,11.46194363759426 L 116.43455533958635,11.180550564015265 L 116.4345551011596,11.180549612143997 L 116.4345549571733,11.180548641487432 L 116.40573129772375,10.88791754518058 L 116.40573124956434,10.887916564941406 L 116.40573129772375,10.887915584702233 L 116.4345549571733,10.59528448839538 L 116.4345551011596,10.595283517738816 L 116.43455533958635,10.595282565867548 L 116.51991243383578,10.313889492288553 z M 102.1889044333581,11.948577119597902 L 102.18890377438714,11.948577846652753 L 102.18890304733229,11.948578505623718 L 101.96160201875776,12.135123581637409 L 101.96160123043619,12.135124166302068 L 101.96160038859753,12.135124670872543 L 101.70227137641442,12.273734582123836 L 101.70227048929746,12.273735001686067 L 101.70226956532869,12.273735332277477 L 101.4208764917496,12.359092426526942 L 101.42087553987832,12.35909266495368 L 101.42087456922177,12.35909280893998 L 101.12824347291496,12.387916468389534 L 101.12824249267578,12.387916516548941 L 101.1282415124366,12.387916468389534 L 100.8356104161298,12.35909280893998 L 100.83560944547324,12.35909266495368 L 100.83560849360197,12.359092426526942 L 100.55421542002287,12.273735332277477 L 100.5542144960541,12.273735001686067 L 100.55421360893715,12.273734582123836 L 100.29488459675403,12.135124670872543 L 100.29488375491538,12.135124166302068 L 100.2948829665938,12.135123581637409 L 100.06758193801927,11.948578505623718 L 100.06758121096442,11.948577846652753 L 100.06758055199346,11.948577119597902 L 99.8810354759798,11.721276091023409 L 99.88103489131514,11.721275302701832 L 99.88103438674466,11.721274460863185 L 99.74242447549332,11.461945448679993 L 99.7424240559311,11.461944561563032 L 99.74242372533969,11.46194363759426 L 99.65706663109026,11.180550564015265 L 99.65706639266351,11.180549612143997 L 99.65706624867721,11.180548641487432 L 99.62824258922765,10.88791754518058 L 99.62824254106825,10.887916564941406 L 99.62824258922765,10.887915584702233 L 99.65706624867721,10.59528448839538 L 99.65706639266351,10.595283517738816 L 99.65706663109026,10.595282565867548 L 99.74242372533969,10.313889492288553 L 99.7424240559311,10.313888568319781 L 99.74242447549332,10.31388768120282 L 99.88103438674466,10.054558669019627 L 99.88103489131514,10.05455782718098 L 99.8810354759798,10.054557038859404 L 100.06758055199346,9.827256010284911 L 100.06758121096442,9.827255283230059 L 100.06758193801927,9.827254624259094 L 100.2948829665938,9.640709548245404 L 100.29488375491538,9.640708963580744 L 100.29488459675403,9.64070845901027 L 100.55421360893715,9.502098547758976 L 100.5542144960541,9.502098128196746 L 100.55421542002287,9.502097797605336 L 100.83560849360197,9.41674070335587 L 100.83560944547324,9.416740464929132 L 100.8356104161298,9.416740320942832 L 101.1282415124366,9.387916661493279 L 101.12824249267578,9.387916613333871 L 101.12824347291496,9.387916661493279 L 101.42087456922177,9.416740320942832 L 101.42087553987832,9.416740464929132 L 101.4208764917496,9.41674070335587 L 101.70226956532869,9.502097797605336 L 101.70227048929746,9.502098128196746 L 101.70227137641442,9.502098547758976 L 101.96160038859753,9.64070845901027 L 101.96160123043619,9.640708963580744 L 101.96160201875776,9.640709548245404 L 102.18890304733229,9.827254624259094 L 102.18890377438714,9.827255283230059 L 102.1889044333581,9.827256010284911 L 102.37544950937176,10.054557038859404 L 102.37545009403642,10.05455782718098 L 102.3754505986069,10.054558669019627 L 102.51406050985824,10.31388768120282 L 102.51406092942047,10.313888568319781 L 102.51406126001187,10.313889492288553 L 102.5994183542613,10.595282565867548 L 102.59941859268805,10.595283517738816 L 102.59941873667435,10.59528448839538 L 102.62824239612391,10.887915584702233 L 102.62824244428332,10.887916564941406 L 102.62824239612391,10.88791754518058 L 102.59941873667435,11.180548641487432 L 102.59941859268805,11.180549612143997 L 102.5994183542613,11.180550564015265 L 102.51406126001187,11.46194363759426 L 102.51406092942047,11.461944561563032 L 102.51406050985824,11.461945448679993 L 102.3754505986069,11.721274460863185 L 102.37545009403642,11.721275302701832 L 102.37544950937176,11.721276091023409 L 102.1889044333581,11.948577119597902 z M 83.22969771682278,10.054558669019627 L 83.22969822139326,10.05455782718098 L 83.22969880605793,10.054557038859404 L 83.41624388207158,9.827256010284911 L 83.41624454104254,9.827255283230059 L 83.4162452680974,9.827254624259094 L 83.64354629667193,9.640709548245404 L 83.6435470849935,9.640708963580744 L 83.64354792683216,9.64070845901027 L 83.90287693901527,9.502098547758976 L 83.90287782613223,9.502098128196746 L 83.902878750101,9.502097797605336 L 84.18427182368009,9.41674070335587 L 84.18427277555136,9.416740464929132 L 84.18427374620792,9.416740320942832 L 84.47690484251473,9.387916661493279 L 84.4769058227539,9.387916613333871 L 84.47690680299308,9.387916661493279 L 84.76953789929989,9.416740320942832 L 84.76953886995645,9.416740464929132 L 84.76953982182772,9.41674070335587 L 85.05093289540682,9.502097797605336 L 85.05093381937559,9.502098128196746 L 85.05093470649254,9.502098547758976 L 85.31026371867566,9.64070845901027 L 85.31026456051431,9.640708963580744 L 85.31026534883588,9.640709548245404 L 85.53756637741041,9.827254624259094 L 85.53756710446527,9.827255283230059 L 85.53756776343623,9.827256010284911 L 85.72411283944989,10.054557038859404 L 85.72411342411455,10.05455782718098 L 85.72411392868503,10.054558669019627 L 85.86272383993636,10.31388768120282 L 85.86272425949859,10.313888568319781 L 85.86272459009,10.313889492288553 L 85.94808168433943,10.595282565867548 L 85.94808192276618,10.595283517738816 L 85.94808206675248,10.59528448839538 L 85.97690572620203,10.887915584702233 L 85.97690577436144,10.887916564941406 L 85.97690572620203,10.88791754518058 L 85.94808206675248,11.180548641487432 L 85.94808192276618,11.180549612143997 L 85.94808168433943,11.180550564015265 L 85.86272459009,11.46194363759426 L 85.86272425949859,11.461944561563032 L 85.86272383993636,11.461945448679993 L 85.72411392868503,11.721274460863185 L 85.72411342411455,11.721275302701832 L 85.72411283944989,11.721276091023409 L 85.53756776343623,11.948577119597902 L 85.53756710446527,11.948577846652753 L 85.53756637741041,11.948578505623718 L 85.31026534883588,12.135123581637409 L 85.31026456051431,12.135124166302068 L 85.31026371867566,12.135124670872543 L 85.05093470649254,12.273734582123836 L 85.05093381937559,12.273735001686067 L 85.05093289540682,12.273735332277477 L 84.76953982182772,12.359092426526942 L 84.76953886995645,12.35909266495368 L 84.76953789929989,12.35909280893998 L 84.47690680299308,12.387916468389534 L 84.4769058227539,12.387916516548941 L 84.47690484251473,12.387916468389534 L 84.18427374620792,12.35909280893998 L 84.18427277555136,12.35909266495368 L 84.18427182368009,12.359092426526942 L 83.902878750101,12.273735332277477 L 83.90287782613223,12.273735001686067 L 83.90287693901527,12.273734582123836 L 83.64354792683216,12.135124670872543 L 83.6435470849935,12.135124166302068 L 83.64354629667193,12.135123581637409 L 83.4162452680974,11.948578505623718 L 83.41624454104254,11.948577846652753 L 83.41624388207158,11.948577119597902 L 83.22969880605793,11.721276091023409 L 83.22969822139326,11.721275302701832 L 83.22969771682278,11.721274460863185 L 83.09108780557145,11.461945448679993 L 83.09108738600922,11.461944561563032 L 83.09108705541782,11.46194363759426 L 83.00572996116838,11.180550564015265 L 83.00572972274163,11.180549612143997 L 83.00572957875534,11.180548641487432 L 82.97690591930578,10.88791754518058 L 82.97690587114637,10.887916564941406 L 82.97690591930578,10.887915584702233 L 83.00572957875534,10.59528448839538 L 83.00572972274163,10.595283517738816 L 83.00572996116838,10.595282565867548 L 83.09108705541782,10.313889492288553 L 83.09108738600922,10.313888568319781 L 83.09108780557145,10.31388768120282 L 83.22969771682278,10.054558669019627 z M 85.88501749156089,20.704611751801128 L 85.88501734756724,20.704612722494627 L 85.88501710912598,20.70461367440103 L 85.79966001487281,20.985999118648934 L 85.79965968431226,20.986000042523926 L 85.79965926479869,20.98600092955473 L 85.66104935350819,21.245337571154618 L 85.66104884891404,21.24533841305028 L 85.6610482642154,21.245339201422706 L 85.4745031882409,21.47264022994947 L 85.47450252926994,21.47264095700432 L 85.47450180221509,21.472641615975284 L 85.24720077364057,21.65918669198897 L 85.247199985319,21.659187276653633 L 85.24719914348034,21.659187781224105 L 84.98787013129724,21.797797692475395 L 84.98786924418029,21.79779811203763 L 84.98786832021152,21.797798442629038 L 84.70647524663241,21.883155536878505 L 84.70647429476114,21.88315577530524 L 84.70647332410458,21.883155919291543 L 84.41384222779777,21.911979578741096 L 84.4138412475586,21.911979626900504 L 84.41384026731942,21.911979578741096 L 84.12120917101261,21.883155919291543 L 84.12120820035605,21.88315577530524 L 84.12120724848478,21.883155536878505 L 83.83981417490567,21.797798442629038 L 83.8398132509369,21.79779811203763 L 83.83981236381995,21.797797692475395 L 83.58048335163684,21.659187781224105 L 83.58048250979819,21.659187276653633 L 83.58048172147662,21.65918669198897 L 83.3531806929021,21.472641615975284 L 83.35317996584725,21.47264095700432 L 83.35317930687629,21.47264022994947 L 83.16663423090179,21.245339201422706 L 83.16663364620315,21.24533841305028 L 83.166633141609,21.245337571154618 L 83.0280232303185,20.98600092955473 L 83.02802281080493,20.986000042523926 L 83.02802248024437,20.985999118648934 L 82.9426653859912,20.70461367440103 L 82.94266514754995,20.704612722494627 L 82.9426650035563,20.704611751801128 L 82.91384134411047,20.411980655532144 L 82.91384129595106,20.41197967529297 L 82.91384134411047,20.411978695053794 L 82.9426650035563,20.11934759878481 L 82.94266514754995,20.11934662809131 L 82.9426653859912,20.119345676184906 L 83.02802248024437,19.837960231937004 L 83.02802281080493,19.83795930806201 L 83.0280232303185,19.837958421031207 L 83.166633141609,19.57862177943132 L 83.16663364620315,19.578620937535657 L 83.16663423090179,19.578620149163232 L 83.35317930687629,19.351319120636468 L 83.35317996584725,19.351318393581618 L 83.3531806929021,19.351317734610653 L 83.58048172147662,19.164772658596966 L 83.58048250979819,19.164772073932305 L 83.58048335163684,19.164771569361832 L 83.83981236381995,19.026161658110542 L 83.8398132509369,19.02616123854831 L 83.83981417490567,19.0261609079569 L 84.12120724848478,18.940803813707433 L 84.12120820035605,18.940803575280697 L 84.12120917101261,18.940803431294395 L 84.41384026731942,18.91197977184484 L 84.4138412475586,18.911979723685434 L 84.41384222779777,18.91197977184484 L 84.70647332410458,18.940803431294395 L 84.70647429476114,18.940803575280697 L 84.70647524663241,18.940803813707433 L 84.98786832021152,19.0261609079569 L 84.98786924418029,19.02616123854831 L 84.98787013129724,19.026161658110542 L 85.24719914348034,19.164771569361832 L 85.247199985319,19.164772073932305 L 85.24720077364057,19.164772658596966 L 85.47450180221509,19.351317734610653 L 85.47450252926994,19.351318393581618 L 85.4745031882409,19.351319120636468 L 85.6610482642154,19.578620149163232 L 85.66104884891404,19.578620937535657 L 85.66104935350819,19.57862177943132 L 85.79965926479869,19.837958421031207 L 85.79965968431226,19.83795930806201 L 85.79966001487281,19.837960231937004 L 85.88501710912598,20.119345676184906 L 85.88501734756724,20.11934662809131 L 85.88501749156089,20.11934759878481 L 85.91384115100672,20.411978695053794 L 85.91384119916613,20.41197967529297 L 85.91384115100672,20.411980655532144 L 85.88501749156089,20.704611751801128 z M 66.51528884226333,10.054558669108948 L 66.51528934688952,10.054557827186924 L 66.5152899316257,10.054557038793693 L 66.70184263705609,9.827256010129874 L 66.70184329591254,9.827255283217346 L 66.70184402282743,9.827254624363515 L 66.92913742205855,9.640709548349822 L 66.92913821048978,9.640708963592488 L 66.92913905245388,9.640708458952611 L 67.18847569398041,9.502098547701317 L 67.18847658101122,9.502098128187745 L 67.18847750488621,9.50209779762719 L 67.46986294913414,9.416740703374009 L 67.46986390104054,9.416740464932754 L 67.46986487173403,9.416740320939107 L 67.76249596800301,9.387916661493279 L 67.76249694824219,9.387916613333871 L 67.76249792848137,9.387916661493279 L 68.05512902475034,9.416740320939107 L 68.05512999544383,9.416740464932754 L 68.05513094735024,9.416740703374009 L 68.33651639159817,9.50209779762719 L 68.33651731547316,9.502098128187745 L 68.33651820250397,9.502098547701317 L 68.5958548440305,9.640708458952611 L 68.5958556859946,9.640708963592488 L 68.59585647442583,9.640709548349822 L 68.82314987365694,9.827254624363515 L 68.82315060057184,9.827255283217346 L 68.82315125942829,9.827256010129874 L 69.00970396485867,10.054557038793693 L 69.00970454959486,10.054557827186924 L 69.00970505422104,10.054558669108948 L 69.14831496542465,10.31388768120282 L 69.14831538498687,10.313888568319781 L 69.14831571557828,10.313889492288553 L 69.23367280982771,10.595282565867548 L 69.23367304825446,10.595283517738816 L 69.23367319224076,10.59528448839538 L 69.26249685169032,10.887915584702233 L 69.26249689984972,10.887916564941406 L 69.26249685169032,10.88791754518058 L 69.23367319224076,11.180548641487432 L 69.23367304825446,11.180549612143997 L 69.23367280982771,11.180550564015265 L 69.14831571557828,11.46194363759426 L 69.14831538498687,11.461944561563032 L 69.14831496542465,11.461945448679993 L 69.00970505422104,11.721274460773865 L 69.00970454959486,11.721275302695888 L 69.00970396485867,11.72127609108912 L 68.82315125709022,11.948577122601703 L 68.82315060081432,11.948577846932755 L 68.82314987696019,11.948578503734652 L 68.81578064256274,11.954635617721781 L 68.59585647434561,12.135123581630024 L 68.59585568600184,12.135124166300061 L 68.59585484413951,12.135124670871937 L 68.33651820250397,12.273734582181495 L 68.33651731547316,12.273735001695067 L 68.33651639159817,12.273735332255622 L 68.05513094735024,12.359092426508804 L 68.05512999544383,12.359092664950058 L 68.05512902475034,12.359092808943705 L 67.76249792848137,12.387916468389534 L 67.76249694824219,12.387916516548941 L 67.76249596800301,12.387916468389534 L 67.46986487173403,12.359092808943705 L 67.46986390104054,12.359092664950058 L 67.46986294913414,12.359092426508804 L 67.18847750488621,12.273735332255622 L 67.18847658101122,12.273735001695067 L 67.18847569398041,12.273734582181495 L 66.92913905245388,12.135124670930201 L 66.92913821048978,12.135124166290325 L 66.92913742205855,12.13512358153299 L 66.70184402282743,11.948578505519297 L 66.70184329591254,11.948577846665467 L 66.70184263705609,11.948577119752938 L 66.5152899316257,11.72127609108912 L 66.51528934688952,11.721275302695888 L 66.51528884226333,11.721274460773865 L 66.37667893105973,11.461945448679993 L 66.3766785114975,11.461944561563032 L 66.3766781809061,11.46194363759426 L 66.29132108665667,11.180550564015265 L 66.29132084822992,11.180549612143997 L 66.29132070424362,11.180548641487432 L 66.26249704479406,10.88791754518058 L 66.26249699663465,10.887916564941406 L 66.26249704479406,10.887915584702233 L 66.29132070424362,10.59528448839538 L 66.29132084822992,10.595283517738816 L 66.29132108665667,10.595282565867548 L 66.3766781809061,10.313889492288553 L 66.3766785114975,10.313888568319781 L 66.37667893105973,10.31388768120282 L 66.51528884226333,10.054558669108948 z M 50.81852820181218,12.359092808943707 L 50.81852723111868,12.35909266495006 L 50.81852627921227,12.359092426508806 L 50.53714083496433,12.273735332255622 L 50.53713991108934,12.273735001695066 L 50.53713902405853,12.273734582181495 L 50.27780238253198,12.13512467093019 L 50.277801540567886,12.135124166290312 L 50.277800752136656,12.13512358153298 L 50.050507352905555,11.948578505519297 L 50.05050662599066,11.948577846665467 L 50.050505967134214,11.948577119752938 L 49.86395326170383,11.72127609108912 L 49.86395267696765,11.721275302695888 L 49.863952172341456,11.721274460773865 L 49.725342261137875,11.461945448680023 L 49.72534184157565,11.46194456156306 L 49.72534151098424,11.46194363759429 L 49.63998441673477,11.180550564015196 L 49.63998417830803,11.180549612143928 L 49.639984034321735,11.180548641487363 L 49.611160374872185,10.88791754518058 L 49.61116032671277,10.887916564941406 L 49.611160374872185,10.887915584702233 L 49.639984034321735,10.59528448839545 L 49.63998417830803,10.595283517738885 L 49.63998441673477,10.595282565867617 L 49.72534151098424,10.313889492288522 L 49.72534184157565,10.313888568319753 L 49.725342261137875,10.31388768120279 L 49.863952172341456,10.054558669108948 L 49.86395267696765,10.054557827186924 L 49.86395326170383,10.054557038793693 L 50.050505967134214,9.827256010129874 L 50.05050662599066,9.827255283217346 L 50.050507352905555,9.827254624363515 L 50.277800752136656,9.640709548349832 L 50.277801540567886,9.6407089635925 L 50.27780238253198,9.640708458952622 L 50.53713902405853,9.502098547701317 L 50.53713991108934,9.502098128187747 L 50.53714083496433,9.50209779762719 L 50.81852627921227,9.416740703374007 L 50.81852723111868,9.416740464932753 L 50.81852820181218,9.416740320939105 L 51.11115929808114,9.387916661493279 L 51.11116027832031,9.387916613333871 L 51.111161258559484,9.387916661493279 L 51.40379235482845,9.416740320939105 L 51.403793325521946,9.416740464932753 L 51.403794277428354,9.416740703374007 L 51.68517972167629,9.50209779762719 L 51.685180645551284,9.502098128187747 L 51.68518153258209,9.502098547701317 L 51.944518174108644,9.640708458952622 L 51.94451901607274,9.6407089635925 L 51.94451980450397,9.640709548349832 L 52.17181320373507,9.827254624363515 L 52.17181393064997,9.827255283217346 L 52.17181458950641,9.827256010129874 L 52.3583672949368,10.054557038793693 L 52.358367879672976,10.054557827186924 L 52.35836838429917,10.054558669108948 L 52.49697829550275,10.31388768120279 L 52.49697871506498,10.313888568319753 L 52.49697904565639,10.313889492288522 L 52.582336139905856,10.595282565867617 L 52.58233637833259,10.595283517738885 L 52.58233652231889,10.59528448839545 L 52.61116018176844,10.887915584702233 L 52.611160229927854,10.887916564941406 L 52.61116018176844,10.88791754518058 L 52.58233652231889,11.180548641487363 L 52.58233637833259,11.180549612143928 L 52.582336139905856,11.180550564015196 L 52.49697904565639,11.46194363759429 L 52.49697871506498,11.46194456156306 L 52.49697829550275,11.461945448680023 L 52.358368382095136,11.721274464897459 L 52.35836788004089,11.721275302968438 L 52.358367298605316,11.72127608805067 L 52.35211181944171,11.728912349810141 L 52.17181458942785,11.948577119898582 L 52.171813930661784,11.94857784667616 L 52.171813203860644,11.948578505416235 L 51.94451980450397,12.13512358153298 L 51.94451901607274,12.135124166290312 L 51.944518174108644,12.13512467093019 L 51.68518153258209,12.273734582181495 L 51.685180645551284,12.273735001695066 L 51.68517972167629,12.273735332255622 L 51.403794277428354,12.359092426508806 L 51.403793325521946,12.35909266495006 L 51.40379235482845,12.359092808943707 L 51.111161258559484,12.387916468389534 L 51.11116027832031,12.387916516548941 L 51.11115929808114,12.387916468389534 L 50.81852820181218,12.359092808943707 z M 52.35836838431766,21.245337571065278 L 52.358367879667796,21.24533841304432 L 52.35836729489764,21.245339201488395 L 52.17181458950641,21.472640230104496 L 52.17181393064997,21.472640957017024 L 52.17181320373507,21.472641615870856 L 51.944519804503976,21.659186691884535 L 51.944519016072746,21.659187276641866 L 51.94451817410865,21.659187781281748 L 51.685181532582085,21.79779769253306 L 51.68518064555128,21.797798112046628 L 51.685179721676285,21.797798442607185 L 51.403794277428354,21.883155536860368 L 51.403793325521946,21.883155775301624 L 51.40379235482845,21.88315591929527 L 51.111161258559484,21.911979578741096 L 51.11116027832031,21.911979626900504 L 51.11115929808114,21.911979578741096 L 50.81852820181218,21.88315591929527 L 50.81852723111868,21.883155775301624 L 50.81852627921227,21.883155536860368 L 50.53714083496434,21.797798442607185 L 50.53713991108935,21.797798112046628 L 50.53713902405854,21.79779769253306 L 50.27780238253197,21.659187781281748 L 50.27780154056788,21.659187276641866 L 50.27780075213665,21.659186691884535 L 50.050507352905555,21.472641615870856 L 50.05050662599066,21.472640957017024 L 50.050505967134214,21.472640230104496 L 49.863953261742985,21.245339201488395 L 49.86395267697283,21.24533841304432 L 49.86395217232297,21.245337571065278 L 49.72534226108023,20.986000929554763 L 49.72534184156666,20.98600004252396 L 49.7253415110061,20.985999118648966 L 49.63998441675291,20.704613674400996 L 49.63998417831166,20.70461272249459 L 49.63998403431801,20.704611751801092 L 49.611160374872185,20.411980655532144 L 49.61116032671277,20.41197967529297 L 49.611160374872185,20.411978695053794 L 49.63998403431801,20.119347598784845 L 49.63998417831166,20.119346628091346 L 49.63998441675291,20.119345676184942 L 49.7253415110061,19.83796023193697 L 49.72534184156666,19.83795930806198 L 49.72534226108023,19.837958421031175 L 49.86395217232297,19.57862177952066 L 49.86395267697283,19.57862093754162 L 49.863953261742985,19.578620149097542 L 50.050505967134214,19.351319120481442 L 50.05050662599066,19.351318393568913 L 50.050507352905555,19.35131773471508 L 50.27780075213665,19.164772658701402 L 50.27780154056788,19.16477207394407 L 50.27780238253197,19.16477156930419 L 50.53713902405854,19.026161658052878 L 50.53713991108935,19.02616123853931 L 50.53714083496434,19.026160907978753 L 50.81852627921227,18.94080381372557 L 50.81852723111868,18.940803575284313 L 50.81852820181218,18.940803431290668 L 51.11115929808114,18.91197977184484 L 51.11116027832031,18.911979723685434 L 51.111161258559484,18.91197977184484 L 51.40379235482845,18.940803431290668 L 51.403793325521946,18.940803575284313 L 51.403794277428354,18.94080381372557 L 51.685179721676285,19.026160907978753 L 51.68518064555128,19.02616123853931 L 51.685181532582085,19.026161658052878 L 51.94451817410865,19.16477156930419 L 51.944519016072746,19.16477207394407 L 51.944519804503976,19.164772658701402 L 52.17181320373507,19.35131773471508 L 52.17181393064997,19.351318393568913 L 52.17181458950641,19.351319120481442 L 52.35836729489764,19.578620149097542 L 52.358367879667796,19.57862093754162 L 52.35836838431766,19.57862177952066 L 52.496978295560396,19.837958421031175 L 52.496978715073965,19.83795930806198 L 52.496979045634525,19.83796023193697 L 52.582336139887715,20.119345676184942 L 52.58233637832897,20.119346628091346 L 52.58233652232261,20.119347598784845 L 52.61116018176844,20.411978695053794 L 52.611160229927854,20.41197967529297 L 52.61116018176844,20.411980655532144 L 52.58233652232261,20.704611751801092 L 52.58233637832897,20.70461272249459 L 52.582336139887715,20.704613674400996 L 52.496979045634525,20.985999118648966 L 52.496978715073965,20.98600004252396 L 52.496978295560396,20.986000929554763 L 52.35836838431766,21.245337571065278 z" />
</svg>