<?xml version="1.0" standalone="no"?>
<!DOCTYPE svg PUBLIC "-//W3C//DTD SVG 1.1//EN" 
  "http://www.w3.org/Graphics/SVG/1.1/DTD/svg11.dtd">
<svg width="74.999999999958mm" height="75.0mm" viewBox="0 0 74.999999999958 75.0"
     xmlns="http://www.w3.org/2000/svg" version="1.1">
<desc>Outline to SVG export</desc>
	<path fill-rule="evenodd" fill="#000000" stroke="#555555" stroke-width="0" opacity="1" d="M 4.199870350266328e-11,74.99999984602634 L 5.339486124674575e-09,74.99999999644207 L 2.125011777304626e-08,74.99999999708805 L 74.99999989190817,75.0 L 74.99999998797786,74.99999999819705 L 74.99999999710701,74.99999999778525 L 74.99999999913818,74.99999995546722 L 75.0,1.195894927348624e-07 L 74.99999999799832,7.400922461322893e-08 L 74.99999999647606,3.877265752398574e-09 L 74.9999999924889,2.8270741769725035e-09 L 74.9999999717789,1.6989990814950339e-09 L 9.08960046078573e-08,2.059096356130036e-18 L 7.16553413799562e-08,8.314339195102197e-10 L 4.5623933224536504e-08,1.92233886908065e-09 L 3.796523489915669e-09,3.6206290749446164e-09 L 1.7384530770476112e-09,4.479810111704853e-08 L 1.7010639341584033e-09,5.02999254759591e-08 L 4.199870350266328e-11,74.99999984602634 z M 69.8131702077827,3.4613040015189322 L 69.81317139557176,3.4613037838486598 L 69.81317260093775,3.4613037109375 L 70.18682739906225,3.4613037109375 L 70.18682860442824,3.4613037838486598 L 70.1868297922173,3.4613040015189322 L 70.54963566195009,3.5507275536730742 L 70.54963681477913,3.550727912904645 L 70.54963791590552,3.5507284084677497 L 70.88049971824444,3.72437229947321 L 70.88050075172974,3.7243729242227643 L 70.88050170236902,3.724373668997125 L 71.1601934881268,3.9721595341864564 L 71.16019434199815,3.9721603880586334 L 71.16019508672213,3.9721613386269734 L 71.37245872183941,4.279677345408378 L 71.37245934658246,4.2796783788612265 L 71.37245984219673,4.279679480085616 L 71.50495867591484,4.629057702650655 L 71.50495903514259,4.6290588554652645 L 71.50495925280455,4.629060043172879 L 71.55000290537699,4.9999987945400015 L 71.55000297829956,5.0 L 71.55000290537699,5.0000012054599985 L 71.50495925280455,5.370939956827121 L 71.50495903514259,5.3709411445347355 L 71.50495867591484,5.370942297349345 L 71.37245984219673,5.720320519914373 L 71.37245934658246,5.720321621138763 L 71.37245872183941,5.7203226545916115 L 71.16019508672213,6.027838661373027 L 71.16019434199815,6.027839611941366 L 71.1601934881268,6.027840465813544 L 70.88050170236902,6.275626331002876 L 70.88050075172974,6.275627075777236 L 70.88049971824444,6.27562770052679 L 70.54963791590552,6.449271591532249 L 70.54963681477913,6.449272087095355 L 70.54963566195009,6.449272446326925 L 70.1868297922173,6.538695998481068 L 70.18682860442824,6.53869621615134 L 70.18682739906225,6.5386962890625 L 69.81317260093775,6.5386962890625 L 69.81317139557176,6.53869621615134 L 69.8131702077827,6.538695998481068 L 69.45036433804991,6.449272446326925 L 69.45036318522087,6.449272087095355 L 69.45036208409448,6.449271591532249 L 69.11950028175556,6.27562770052679 L 69.11949924827026,6.275627075777236 L 69.11949829763098,6.275626331002876 L 68.8398065118732,6.027840465813539 L 68.83980565800185,6.027839611941362 L 68.83980491327787,6.027838661373022 L 68.62754127816059,5.720322654591631 L 68.62754065341754,5.720321621138782 L 68.62754015780327,5.7203205199143925 L 68.49504132412163,5.37094229744549 L 68.49504096486962,5.370941144532482 L 68.49504074720748,5.370939956722056 L 68.45000472396832,5.000001205258788 L 68.45000465107017,5.0 L 68.45000472396832,4.999998794741212 L 68.49504074720748,4.629060043277944 L 68.49504096486962,4.629058855467518 L 68.49504132412163,4.62905770255451 L 68.62754015780327,4.279679480085616 L 68.62754065341754,4.2796783788612265 L 68.62754127816059,4.279677345408378 L 68.83980491327787,3.9721613386269734 L 68.83980565800185,3.9721603880586334 L 68.8398065118732,3.9721595341864564 L 69.11949829763098,3.724373668997125 L 69.11949924827026,3.7243729242227643 L 69.11950028175556,3.72437229947321 L 69.45036208409448,3.5507284084677497 L 69.45036318522087,3.550727912904645 L 69.45036433804991,3.5507275536730742 L 69.8131702077827,3.4613040015189322 z M 68.83980491323382,68.9721613386908 L 68.83980565800847,68.97216038806525 L 68.83980651194355,68.97215953414893 L 69.11949829781405,68.72438129820469 L 69.11949924825304,68.72438055359096 L 69.11950028150407,68.72437992895016 L 69.45036208386335,68.5507207792441 L 69.45036318523354,68.55072028354192 L 69.45036433833143,68.55071992423395 L 69.8131702078746,68.46130400147149 L 69.81317139556958,68.46130378383671 L 69.81317260083716,68.4613037109375 L 70.18682739916284,68.4613037109375 L 70.18682860443042,68.46130378383671 L 70.1868297921254,68.46130400147149 L 70.54963566166855,68.55071992423395 L 70.54963681476643,68.55072028354192 L 70.54963791613662,68.5507207792441 L 70.88049971849593,68.72437992895016 L 70.88050075174696,68.72438055359096 L 70.88050170218595,68.72438129820469 L 71.16019348805645,68.97215953414893 L 71.16019434199153,68.97216038806525 L 71.16019508676618,68.9721613386908 L 71.3724587218394,69.27967734540837 L 71.37245934658245,69.27967837886122 L 71.37245984219672,69.2796794800856 L 71.50495867591484,69.62905770265066 L 71.50495903514259,69.62905885546527 L 71.50495925280455,69.62906004317288 L 71.55000290537699,69.99999879454 L 71.55000297829956,70.0 L 71.55000290537699,70.00000120546 L 71.50495925280455,70.37093995682712 L 71.50495903514259,70.37094114453473 L 71.50495867591484,70.37094229734934 L 71.37245984219672,70.7203205199144 L 71.37245934658245,70.72032162113878 L 71.3724587218394,70.72032265459163 L 71.16019508676618,71.0278386613092 L 71.16019434199153,71.02783961193475 L 71.16019348805645,71.02784046585107 L 70.88050170218595,71.27561870179531 L 70.88050075174696,71.27561944640904 L 70.88049971849593,71.27562007104984 L 70.54963791613665,71.4492792207559 L 70.54963681476646,71.44927971645808 L 70.54963566166857,71.44928007576605 L 70.1868297921254,71.53869599852851 L 70.18682860443042,71.53869621616329 L 70.18682739916284,71.5386962890625 L 69.81317260083716,71.5386962890625 L 69.81317139556958,71.53869621616329 L 69.8131702078746,71.53869599852851 L 69.45036433833143,71.44928007576605 L 69.45036318523354,71.44927971645808 L 69.45036208386335,71.4492792207559 L 69.11950028150407,71.27562007104984 L 69.11949924825304,71.27561944640904 L 69.11949829781405,71.27561870179531 L 68.83980651194355,71.02784046585107 L 68.83980565800847,71.02783961193475 L 68.83980491323382,71.0278386613092 L 68.6275412781606,70.72032265459163 L 68.62754065341755,70.72032162113878 L 68.62754015780328,70.7203205199144 L 68.49504132412163,70.37094229744548 L 68.49504096486962,70.37094114453247 L 68.49504074720748,70.37093995672204 L 68.45000472396832,70.00000120525878 L 68.45000465107017,70.0 L 68.45000472396832,69.99999879474122 L 68.49504074720748,69.62906004327796 L 68.49504096486962,69.62905885546753 L 68.49504132412163,69.62905770255452 L 68.62754015780328,69.2796794800856 L 68.62754065341755,69.27967837886122 L 68.6275412781606,69.27967734540837 L 68.83980491323382,68.9721613386908 z M 69.65504345874685,21.553773634680304 L 69.65092482897539,21.58769105546448 L 69.650924611315,21.587692243167744 L 69.65092425208985,21.587693395978384 L 69.61245770603665,21.689123925486005 L 69.61245721033102,21.6891250268879 L 69.61245658545522,21.68912606049346 L 69.55082771602825,21.778403236778967 L 69.55082697141366,21.778404187153622 L 69.55082611769306,21.778405040865525 L 69.46962828918626,21.850340991724366 L 69.46962733865118,21.85034173643476 L 69.46962630528463,21.850342361145955 L 69.44064909447515,21.865551369011648 L 69.3807443226671,21.896993047495176 L 69.38074343572272,21.8969934590319 L 69.38074251282738,21.896993781982413 L 69.3807415628043,21.8969940132592 L 69.38074059473598,21.896994150651178 L 69.3807396178775,21.896994192844833 L 69.38073864156792,21.896994139436785 L 69.38073767514109,21.896993990937627 L 69.38073672783636,21.896993748767066 L 69.3807358087103,21.896993415240324 L 69.38073492655003,21.896992993546032 L 69.3807340897893,21.89699248771573 L 69.38073330642781,21.89699190258531 L 69.38073258395478,21.896991243748815 L 69.38073192927726,21.896990517504943 L 69.3807313486542,21.89698973079682 L 69.38073084763653,21.896988891145636 L 69.38073043101414,21.896988006578727 L 69.38073010277012,21.89698708555285 L 69.38072986604253,21.89698613687331 L 69.38072972309462,21.896985169609795 L 69.38072967529297,21.89698419300966 L 69.38072967529297,21.063014891463 L 69.38072972309462,21.063013914862864 L 69.38072986604253,21.06301294759935 L 69.38073010277012,21.06301199891981 L 69.38073043101414,21.063011077893933 L 69.38073084763653,21.063010193327024 L 69.3807313486542,21.063009353675838 L 69.38073192927726,21.063008566967717 L 69.38073258395478,21.063007840723845 L 69.38073330642781,21.06300718188735 L 69.3807340897893,21.06300659675693 L 69.38073492655003,21.063006090926628 L 69.3807358087103,21.063005669232336 L 69.38073672783636,21.063005335705594 L 69.38073767514109,21.063005093535033 L 69.38073864156792,21.063004945035875 L 69.3807396178775,21.063004891627827 L 69.38074059473598,21.06300493382148 L 69.3807415628043,21.06300507121346 L 69.38074251282738,21.063005302490247 L 69.38074343572272,21.06300562544076 L 69.3807443226671,21.063006036977484 L 69.4340573199681,21.090987950096228 L 69.46962630528463,21.1096567233267 L 69.46962733865118,21.109657348037896 L 69.46962828918626,21.10965809274829 L 69.51053322849634,21.145897186307884 L 69.55082611769306,21.181594043607134 L 69.55082697141366,21.181594897319037 L 69.55082771602825,21.181595847693693 L 69.59642701069531,21.247652166856092 L 69.61245658545522,21.270873023979195 L 69.61245721033102,21.270874057584756 L 69.61245770603665,21.27087515898665 L 69.65092425207459,21.372305688454034 L 69.65092461130989,21.37230684130583 L 69.65092482897035,21.372308029052093 L 69.66400131847931,21.480002151519027 L 69.66400139139118,21.480003356933263 L 69.66400131846909,21.480004562346885 L 69.65504345874685,21.553773634680304 z M 69.61245658545522,16.190871192924508 L 69.61245721033102,16.190872226530068 L 69.61245770603665,16.190873327931964 L 69.65092425207459,16.292303857399347 L 69.65092461130989,16.29230501025114 L 69.65092482897035,16.292306197997405 L 69.66400131847931,16.400000320464365 L 69.66400139139118,16.4000015258786 L 69.66400131846909,16.400002731292222 L 69.65092482897539,16.507689224409816 L 69.650924611315,16.50769041211308 L 69.65092425208985,16.50769156492372 L 69.61245770603665,16.609122094431317 L 69.61245721033102,16.609123195833213 L 69.61245658545522,16.609124229438773 L 69.55082771602825,16.69840140572428 L 69.55082697141366,16.698402356098935 L 69.55082611769306,16.698403209810838 L 69.46962828918626,16.77033916066968 L 69.46962733865118,16.770339905380073 L 69.46962630528463,16.770340530091268 L 69.3807443226671,16.81699121644049 L 69.38074343572272,16.816991627977213 L 69.38074251282738,16.816991950927726 L 69.3807415628043,16.816992182204512 L 69.38074059473598,16.81699231959649 L 69.3807396178775,16.816992361790145 L 69.38073864156792,16.816992308382098 L 69.38073767514109,16.81699215988294 L 69.38073672783636,16.81699191771238 L 69.3807358087103,16.816991584185637 L 69.38073492655003,16.816991162491345 L 69.3807340897893,16.81699065666104 L 69.38073330642781,16.816990071530622 L 69.38073258395478,16.816989412694127 L 69.38073192927726,16.816988686450255 L 69.3807313486542,16.816987899742134 L 69.38073084763653,16.81698706009095 L 69.38073043101414,16.81698617552404 L 69.38073010277012,16.816985254498164 L 69.38072986604253,16.81698430581862 L 69.38072972309462,16.816983338555108 L 69.38072967529297,16.816982361954974 L 69.38072967529297,15.983013060408311 L 69.38072972309462,15.983012083808179 L 69.38072986604253,15.983011116544663 L 69.38073010277012,15.983010167865123 L 69.38073043101414,15.983009246839243 L 69.38073084763653,15.983008362272336 L 69.3807313486542,15.983007522621152 L 69.38073192927726,15.98300673591303 L 69.38073258395478,15.983006009669156 L 69.38073330642781,15.983005350832665 L 69.3807340897893,15.983004765702246 L 69.38073492655003,15.983004259871938 L 69.3807358087103,15.983003838177646 L 69.38073672783636,15.983003504650908 L 69.38073767514109,15.983003262480345 L 69.38073864156792,15.983003113981189 L 69.3807396178775,15.98300306057314 L 69.38074059473598,15.983003102766796 L 69.3807415628043,15.983003240158773 L 69.38074251282738,15.983003471435559 L 69.38074343572272,15.983003794386072 L 69.3807443226671,15.983004205922796 L 69.46962630528463,16.029654892272013 L 69.46962733865118,16.02965551698321 L 69.46962828918626,16.029656261693603 L 69.49918169624823,16.055838642149048 L 69.55082611769306,16.101592212552447 L 69.55082697141366,16.10159306626435 L 69.55082771602825,16.101594016639005 L 69.61245658545522,16.190871192924508 z M 69.407755572804,24.422816811242953 L 69.3807443226671,24.43699396302252 L 69.38074343572272,24.436994374559244 L 69.38074251282738,24.436994697509757 L 69.3807415628043,24.436994928786543 L 69.38074059473598,24.436995066178522 L 69.3807396178775,24.436995108372177 L 69.38073864156792,24.43699505496413 L 69.38073767514109,24.43699490646497 L 69.38073672783636,24.43699466429441 L 69.3807358087103,24.436994330767668 L 69.38073492655003,24.436993909073376 L 69.3807340897893,24.436993403243072 L 69.38073330642781,24.436992818112653 L 69.38073258395478,24.43699215927616 L 69.38073192927726,24.436991433032286 L 69.3807313486542,24.436990646324166 L 69.38073084763653,24.43698980667298 L 69.38073043101414,24.43698892210607 L 69.38073010277012,24.436988001080195 L 69.38072986604253,24.436987052400653 L 69.38072972309462,24.43698608513714 L 69.38072967529297,24.436985108537005 L 69.38072967529297,23.603015806990342 L 69.38072972309462,23.603014830390208 L 69.38072986604253,23.603013863126694 L 69.38073010277012,23.603012914447152 L 69.38073043101414,23.603011993421276 L 69.38073084763653,23.603011108854368 L 69.3807313486542,23.603010269203182 L 69.38073192927726,23.60300948249506 L 69.38073258395478,23.60300875625119 L 69.38073330642781,23.603008097414694 L 69.3807340897893,23.603007512284275 L 69.38073492655003,23.60300700645397 L 69.3807358087103,23.60300658475968 L 69.38073672783636,23.603006251232937 L 69.38073767514109,23.603006009062376 L 69.38073864156792,23.60300586056322 L 69.3807396178775,23.60300580715517 L 69.38074059473598,23.603005849348826 L 69.3807415628043,23.603005986740804 L 69.38074251282738,23.60300621801759 L 69.38074343572272,23.603006540968103 L 69.3807443226671,23.603006952504828 L 69.4199275845006,23.623572718525143 L 69.46962630528463,23.649657638854045 L 69.46962733865118,23.64965826356524 L 69.46962828918626,23.649659008275634 L 69.51053322849634,23.685898101835228 L 69.52268767430888,23.696666143699968 L 69.55082611769306,23.721594959134478 L 69.55082697141366,23.72159581284638 L 69.55082771602825,23.721596763221036 L 69.61245658545522,23.81087393950654 L 69.61245721033102,23.8108749731121 L 69.61245770603665,23.810876074513995 L 69.65092425208985,23.91230660402159 L 69.650924611315,23.91230775683223 L 69.65092482897539,23.912308944535496 L 69.66400131846909,24.01999543765308 L 69.66400139139118,24.0199966430667 L 69.66400131847931,24.019997848480937 L 69.65735500798014,24.07473490741103 L 69.65092482897035,24.127691970947907 L 69.65092461130989,24.12769315869417 L 69.65092425207459,24.127694311545966 L 69.61245770603665,24.22912484101335 L 69.61245721033102,24.229125942415244 L 69.61245658545522,24.229126976020805 L 69.55082771602825,24.31840415230631 L 69.55082697141366,24.318405102680966 L 69.55082611769306,24.31840595639287 L 69.46962828918626,24.39034190725171 L 69.46962733865118,24.390342651962104 L 69.46962630528463,24.3903432766733 L 69.407755572804,24.422816811242953 z M 69.38072967529297,18.52301397593565 L 69.38072972309462,18.523012999335517 L 69.38072986604253,18.523012032072003 L 69.38073010277012,18.52301108339246 L 69.38073043101414,18.523010162366585 L 69.38073084763653,18.523009277799677 L 69.3807313486542,18.52300843814849 L 69.38073192927726,18.52300765144037 L 69.38073258395478,18.523006925196498 L 69.38073330642781,18.523006266360003 L 69.3807340897893,18.523005681229584 L 69.38073492655003,18.52300517539928 L 69.3807358087103,18.52300475370499 L 69.38073672783636,18.523004420178246 L 69.38073767514109,18.523004178007685 L 69.38073864156792,18.523004029508527 L 69.3807396178775,18.52300397610048 L 69.38074059473598,18.523004018294134 L 69.3807415628043,18.523004155686113 L 69.38074251282738,18.5230043869629 L 69.38074343572272,18.523004709913412 L 69.3807443226671,18.523005121450137 L 69.46962630528463,18.569655807799357 L 69.46962733865118,18.569656432510552 L 69.46962828918626,18.569657177220947 L 69.55082611769306,18.641593128079787 L 69.55082697141366,18.64159398179169 L 69.55082771602825,18.641594932166345 L 69.5586139015299,18.65287420212676 L 69.61245658545522,18.73087210845185 L 69.61245721033102,18.730873142057412 L 69.61245770603665,18.730874243459308 L 69.65092425207459,18.83230477292669 L 69.65092461130989,18.832305925778485 L 69.65092482897035,18.83230711352475 L 69.66400131847931,18.94000123599172 L 69.66400139139118,18.940002441405955 L 69.66400131846909,18.940003646819576 L 69.65092482897539,19.047690139937135 L 69.650924611315,19.0476913276404 L 69.65092425208985,19.04769248045104 L 69.63552868489312,19.08828828883672 L 69.61245770603664,19.14912300995868 L 69.612457210331,19.149124111360575 L 69.6124565854552,19.149125144966135 L 69.55082771602825,19.238402321251623 L 69.55082697141366,19.23840327162628 L 69.55082611769306,19.23840412533818 L 69.46962828918626,19.310340076197022 L 69.46962733865118,19.310340820907417 L 69.46962630528463,19.31034144561861 L 69.3807443226671,19.356992131967832 L 69.38074343572272,19.356992543504557 L 69.38074251282738,19.35699286645507 L 69.3807415628043,19.356993097731856 L 69.38074059473598,19.356993235123834 L 69.3807396178775,19.35699327731749 L 69.38073864156792,19.35699322390944 L 69.38073767514109,19.356993075410283 L 69.38073672783636,19.356992833239723 L 69.3807358087103,19.35699249971298 L 69.38073492655003,19.35699207801869 L 69.3807340897893,19.356991572188385 L 69.38073330642781,19.356990987057966 L 69.38073258395478,19.35699032822147 L 69.38073192927726,19.3569896019776 L 69.3807313486542,19.356988815269478 L 69.38073084763653,19.356987975618292 L 69.38073043101414,19.356987091051383 L 69.38073010277012,19.356986170025507 L 69.38072986604253,19.356985221345965 L 69.38072972309462,19.35698425408245 L 69.38072967529297,19.356983277482318 L 69.38072967529297,18.52301397593565 z M 69.38072967529297,13.540087209472656 L 69.38072972344571,13.540086229301252 L 69.38072986744017,13.540085258569436 L 69.38073010588961,13.540084306625884 L 69.38073043649764,13.540083382638333 L 69.38073085608033,13.540082495505288 L 69.38073136059685,13.540081653770326 L 69.38073194518844,13.540080865539814 L 69.38073260422516,13.540080138404845 L 69.38073333136013,13.540079479368123 L 69.38073411959064,13.540078894776533 L 69.3807349613256,13.540078390260012 L 69.38073584845864,13.54007797067733 L 69.3807367724462,13.540077640069299 L 69.38073772438975,13.540077401619852 L 69.38073869512156,13.54007725762539 L 69.38073967529297,13.540077209472656 L 69.5265382617534,13.540077209472656 L 69.52653929560205,13.540077263058379 L 69.52654031837079,13.540077423241263 L 69.52654131909848,13.540077688304603 L 69.52654228706015,13.54007805540768 L 69.52654321188203,13.540078520616195 L 69.52654408365265,13.540079078944439 L 69.52654489302915,13.540079724408729 L 69.53407713664684,13.546752798266777 L 69.53407780978515,13.546753453577033 L 69.53407841845859,13.54675416916305 L 69.53407895729535,13.546754938709455 L 69.53407942153993,13.546755755424638 L 69.53407980709514,13.546756612100706 L 69.53408011055829,13.546757501177096 L 69.5340803292512,13.54675841480729 L 69.53408046124376,13.546759344928075 L 69.5340805053711,13.546760283330704 L 69.5340805053711,14.173233307977885 L 69.53408046124376,14.173234246380513 L 69.5340803292512,14.173235176501299 L 69.53408011055829,14.173236090131493 L 69.53407980709514,14.173236979207882 L 69.53407942153993,14.17323783588395 L 69.53407895729535,14.173238652599133 L 69.53407841845859,14.173239422145539 L 69.53407780978515,14.173240137731556 L 69.53407713664684,14.173240793041812 L 69.52857395210484,14.178116253630611 L 69.52636404749241,14.180074084185021 L 69.5263632381159,14.180074729649311 L 69.52636236634528,14.180075287977555 L 69.5263614415234,14.18007575318607 L 69.52636047356174,14.180076120289147 L 69.52635947283405,14.180076385352487 L 69.5263584500653,14.180076545535371 L 69.52635741621665,14.180076599121094 L 69.38073967529297,14.180076599121094 L 69.38073869512156,14.18007655096836 L 69.38073772438975,14.180076406973898 L 69.3807367724462,14.180076168524451 L 69.38073584845864,14.18007583791642 L 69.3807349613256,14.180075418333738 L 69.38073411959064,14.180074913817217 L 69.38073333136013,14.180074329225627 L 69.38073260422516,14.180073670188905 L 69.38073194518844,14.180072943053936 L 69.38073136059685,14.180072154823424 L 69.38073085608033,14.180071313088462 L 69.38073043649764,14.180070425955417 L 69.38073010588961,14.180069501967866 L 69.38072986744017,14.180068550024314 L 69.38072972344571,14.180067579292498 L 69.38072967529297,14.180066599121094 L 69.38072967529297,13.540087209472656 z M 69.04741729842665,15.982920114118164 L 69.04741818537103,15.98291970258144 L 69.04741910826637,15.982919379630927 L 69.04742005828945,15.98291914835414 L 69.04742102635777,15.982919010962163 L 69.04742200321625,15.982918968768507 L 69.04742297952583,15.982919022176556 L 69.04742394595266,15.982919170675713 L 69.04742489325739,15.982919412846275 L 69.04742581238345,15.982919746373014 L 69.04742669454372,15.982920168067306 L 69.04742753130445,15.982920673897613 L 69.04742831466594,15.982921259028032 L 69.04742903713897,15.982921917864523 L 69.04742969181649,15.982922644108397 L 69.04743027243956,15.98292343081652 L 69.04743077345722,15.982924270467704 L 69.0474311900796,15.98292515503461 L 69.04743151832363,15.98292607606049 L 69.04743175505122,15.98292702474003 L 69.04743189799913,15.982927992003546 L 69.04743194580078,15.982928968603678 L 69.04743194580078,16.817066453759605 L 69.04743189799913,16.81706743035974 L 69.04743175505122,16.817068397623252 L 69.04743151832363,16.817069346302794 L 69.0474311900796,16.81707026732867 L 69.04743077345722,16.81707115189558 L 69.04743027243956,16.817071991546765 L 69.04742969181649,16.817072778254886 L 69.04742903713897,16.817073504498758 L 69.04742831466594,16.817074163335253 L 69.04742753130445,16.81707474846567 L 69.04742669454372,16.817075254295975 L 69.04742581238345,16.817075675990267 L 69.04742489325739,16.81707600951701 L 69.04742394595266,16.81707625168757 L 69.04742297952583,16.81707640018673 L 69.04742200321625,16.817076453594776 L 69.04742102635777,16.81707641140112 L 69.04742005828945,16.817076274009143 L 69.04741910826637,16.817076042732356 L 69.04741818537103,16.817075719781844 L 69.04741729842665,16.81707530824512 L 68.95837509852396,16.770340530091268 L 68.95837406515741,16.770339905380073 L 68.95837311462233,16.77033916066968 L 68.87717528611553,16.698403209810834 L 68.87717443239494,16.69840235609893 L 68.87717368778034,16.698401405724276 L 68.81554481835339,16.609124229438795 L 68.81554419347759,16.609123195833234 L 68.81554369777196,16.60912209443134 L 68.77707715171874,16.50769156492372 L 68.77707679249359,16.50769041211308 L 68.7770765748332,16.507689224409816 L 68.76408393522678,16.4006932453872 L 68.76408386230469,16.400692039931194 L 68.76408386230469,16.39931096282063 L 68.76408393521656,16.399309757448776 L 68.77707657483825,16.292306197997405 L 68.7770767924987,16.29230501025114 L 68.777077151734,16.292303857399347 L 68.81554369777196,16.190873327931946 L 68.81554419347759,16.19087222653005 L 68.81554481835339,16.19087119292449 L 68.87717368778034,16.101594016639 L 68.87717443239494,16.101593066264346 L 68.87717528611553,16.101592212552443 L 68.95837311462233,16.029656261693603 L 68.95837406515741,16.02965551698321 L 68.95837509852396,16.029654892272013 L 69.03648153644659,15.988659869095471 L 69.04741729842665,15.982920114118164 z M 69.04743194580078,24.43706920034164 L 69.04743189799913,24.437070176941774 L 69.04743175505122,24.437071144205287 L 69.04743151832363,24.43707209288483 L 69.0474311900796,24.437073013910705 L 69.04743077345722,24.437073898477614 L 69.04743027243956,24.4370747381288 L 69.04742969181649,24.43707552483692 L 69.04742903713897,24.437076251080793 L 69.04742831466594,24.437076909917288 L 69.04742753130445,24.437077495047706 L 69.04742669454372,24.43707800087801 L 69.04742581238345,24.437078422572302 L 69.04742489325739,24.437078756099044 L 69.04742394595266,24.437078998269605 L 69.04742297952583,24.437079146768763 L 69.04742200321625,24.43707920017681 L 69.04742102635777,24.437079157983156 L 69.04742005828945,24.437079020591177 L 69.04741910826637,24.43707878931439 L 69.04741818537103,24.43707846636388 L 69.04741729842665,24.437078054827154 L 68.95837509852396,24.3903432766733 L 68.95837406515741,24.390342651962104 L 68.95837311462233,24.39034190725171 L 68.87717528611553,24.31840595639287 L 68.87717443239494,24.318405102680966 L 68.87717368778034,24.31840415230631 L 68.81554481835337,24.229126976020805 L 68.81554419347758,24.229125942415244 L 68.81554369777194,24.22912484101335 L 68.777077151734,24.127694311545966 L 68.7770767924987,24.12769315869417 L 68.77707657483825,24.127691970947907 L 68.76408393521656,24.020688411496536 L 68.76408386230469,24.020687206124684 L 68.76408386230469,24.01930612901412 L 68.76408393522678,24.019304923558114 L 68.7770765748332,23.91230894453552 L 68.77707679249359,23.912307756832256 L 68.77707715171874,23.912306604021616 L 68.79672653389731,23.860494121660604 L 68.81554369777194,23.810876074513995 L 68.81554419347758,23.8108749731121 L 68.81554481835337,23.81087393950654 L 68.87717368778034,23.721596763221033 L 68.87717443239494,23.721595812846378 L 68.87717528611553,23.721594959134475 L 68.95837311462233,23.649659008275634 L 68.95837406515741,23.64965826356524 L 68.95837509852396,23.649657638854045 L 69.04741729842665,23.60292286070019 L 69.04741818537103,23.602922449163465 L 69.04741910826637,23.602922126212952 L 69.04742005828945,23.602921894936166 L 69.04742102635777,23.602921757544188 L 69.04742200321625,23.602921715350533 L 69.04742297952583,23.60292176875858 L 69.04742394595266,23.60292191725774 L 69.04742489325739,23.6029221594283 L 69.04742581238345,23.60292249295504 L 69.04742669454372,23.602922914649334 L 69.04742753130445,23.602923420479637 L 69.04742831466594,23.602924005610056 L 69.04742903713897,23.60292466444655 L 69.04742969181649,23.602925390690423 L 69.04743027243956,23.602926177398544 L 69.04743077345722,23.60292701704973 L 69.0474311900796,23.60292790161664 L 69.04743151832363,23.602928822642514 L 69.04743175505122,23.602929771322056 L 69.04743189799913,23.60293073858557 L 69.04743194580078,23.602931715185704 L 69.04743194580078,24.43706920034164 z M 69.04743194580078,21.897068284814292 L 69.04743189799913,21.897069261414426 L 69.04743175505122,21.89707022867794 L 69.04743151832363,21.897071177357482 L 69.0474311900796,21.897072098383358 L 69.04743077345722,21.897072982950267 L 69.04743027243956,21.897073822601453 L 69.04742969181649,21.897074609309573 L 69.04742903713897,21.897075335553446 L 69.04742831466594,21.89707599438994 L 69.04742753130445,21.89707657952036 L 69.04742669454372,21.897077085350663 L 69.04742581238345,21.897077507044955 L 69.04742489325739,21.897077840571697 L 69.04742394595266,21.897078082742258 L 69.04742297952583,21.897078231241416 L 69.04742200321625,21.897078284649464 L 69.04742102635777,21.89707824245581 L 69.04742005828945,21.89707810506383 L 69.04741910826637,21.897077873787044 L 69.04741818537103,21.89707755083653 L 69.04741729842665,21.897077139299807 L 68.96897862219542,21.8559077371921 L 68.95837509852396,21.850342361145955 L 68.95837406515741,21.85034173643476 L 68.95837311462233,21.850340991724366 L 68.87717528611553,21.778405040865525 L 68.87717443239494,21.778404187153622 L 68.87717368778034,21.778403236778967 L 68.81554481835337,21.68912606049346 L 68.81554419347758,21.6891250268879 L 68.81554369777194,21.689123925486005 L 68.77707715171874,21.58769339597841 L 68.77707679249359,21.58769224316777 L 68.7770765748332,21.587691055464504 L 68.76408393522678,21.480695076441886 L 68.76408386230469,21.48069387098588 L 68.76408386230469,21.479312793875316 L 68.76408393521656,21.479311588503464 L 68.77707657483825,21.372308029052093 L 68.7770767924987,21.37230684130583 L 68.777077151734,21.372305688454034 L 68.81554369777196,21.27087515898663 L 68.81554419347759,21.270874057584734 L 68.81554481835339,21.270873023979174 L 68.87717368778034,21.18159584769369 L 68.87717443239494,21.181594897319034 L 68.87717528611553,21.18159404360713 L 68.95837311462233,21.10965809274829 L 68.95837406515741,21.109657348037896 L 68.95837509852396,21.1096567233267 L 69.04741729842665,21.06292194517285 L 69.04741818537103,21.062921533636125 L 69.04741910826637,21.062921210685612 L 69.04742005828945,21.062920979408826 L 69.04742102635777,21.062920842016847 L 69.04742200321625,21.062920799823193 L 69.04742297952583,21.06292085323124 L 69.04742394595266,21.0629210017304 L 69.04742489325739,21.06292124390096 L 69.04742581238345,21.0629215774277 L 69.04742669454372,21.062921999121993 L 69.04742753130445,21.062922504952297 L 69.04742831466594,21.062923090082716 L 69.04742903713897,21.06292374891921 L 69.04742969181649,21.062924475163083 L 69.04743027243956,21.062925261871204 L 69.04743077345722,21.06292610152239 L 69.0474311900796,21.0629269860893 L 69.04743151832363,21.062927907115174 L 69.04743175505122,21.062928855794716 L 69.04743189799913,21.06292982305823 L 69.04743194580078,21.062930799658364 L 69.04743194580078,21.897068284814292 z M 69.04743194580078,19.35706736928695 L 69.04743189799913,19.357068345887082 L 69.04743175505122,19.357069313150596 L 69.04743151832363,19.35707026183014 L 69.0474311900796,19.357071182856014 L 69.04743077345722,19.357072067422923 L 69.04743027243956,19.35707290707411 L 69.04742969181649,19.35707369378223 L 69.04742903713897,19.357074420026102 L 69.04742831466594,19.357075078862596 L 69.04742753130445,19.357075663993015 L 69.04742669454372,19.35707616982332 L 69.04742581238345,19.35707659151761 L 69.04742489325739,19.357076925044353 L 69.04742394595266,19.357077167214914 L 69.04742297952583,19.357077315714072 L 69.04742200321625,19.35707736912212 L 69.04742102635777,19.357077326928465 L 69.04742005828945,19.357077189536486 L 69.04741910826637,19.3570769582597 L 69.04741818537103,19.357076635309188 L 69.04741729842665,19.357076223772463 L 68.95837509852396,19.31034144561861 L 68.95837406515741,19.310340820907417 L 68.95837311462233,19.310340076197022 L 68.91723511138643,19.273894503284186 L 68.87717528611553,19.238404125338178 L 68.87717443239494,19.238403271626275 L 68.87717368778034,19.23840232125162 L 68.81554481835337,19.149125144966117 L 68.81554419347758,19.149124111360557 L 68.81554369777194,19.14912300995866 L 68.77707715171874,19.047692480451065 L 68.77707679249359,19.047691327640425 L 68.7770765748332,19.04769013993716 L 68.76408393522678,18.940694160914543 L 68.76408386230469,18.940692955458537 L 68.76408386230469,18.939311878347972 L 68.76408393521656,18.93931067297612 L 68.77707657483825,18.83230711352475 L 68.7770767924987,18.832305925778485 L 68.777077151734,18.83230477292669 L 68.81554369777194,18.730874243459308 L 68.81554419347758,18.730873142057412 L 68.81554481835337,18.73087210845185 L 68.87717368778034,18.641594932166345 L 68.87717443239494,18.64159398179169 L 68.87717528611553,18.641593128079787 L 68.95837311462233,18.569657177220947 L 68.95837406515741,18.569656432510552 L 68.95837509852396,18.569655807799357 L 68.96942675688749,18.563855223330243 L 69.04741729842665,18.522921029645506 L 69.04741818537103,18.52292061810878 L 69.04741910826637,18.52292029515827 L 69.04742005828945,18.522920063881482 L 69.04742102635777,18.522919926489504 L 69.04742200321625,18.52291988429585 L 69.04742297952583,18.522919937703897 L 69.04742394595266,18.522920086203055 L 69.04742489325739,18.522920328373615 L 69.04742581238345,18.522920661900358 L 69.04742669454372,18.52292108359465 L 69.04742753130445,18.522921589424953 L 69.04742831466594,18.522922174555372 L 69.04742903713897,18.522922833391867 L 69.04742969181649,18.52292355963574 L 69.04743027243956,18.52292434634386 L 69.04743077345722,18.522925185995046 L 69.0474311900796,18.522926070561955 L 69.04743151832363,18.52292699158783 L 69.04743175505122,18.522927940267373 L 69.04743189799913,18.522928907530886 L 69.04743194580078,18.52292988413102 L 69.04743194580078,19.35706736928695 z M 68.89408111572266,13.546618341323592 L 68.89408115984999,13.546617402920964 L 68.89408129184255,13.546616472800178 L 68.89408151053546,13.546615559169984 L 68.89408181399861,13.546614670093595 L 68.89408219955382,13.546613813417526 L 68.8940826637984,13.546612996702343 L 68.89408320263516,13.546612227155938 L 68.8940838113086,13.546611511569921 L 68.8940844844469,13.546610856259665 L 68.90145651077944,13.540079724408729 L 68.90145732015594,13.540079078944439 L 68.90145819192657,13.540078520616195 L 68.90145911674844,13.54007805540768 L 68.90146008471011,13.540077688304603 L 68.9014610854378,13.540077423241263 L 68.90146210820654,13.540077263058379 L 68.90146314205519,13.540077209472656 L 69.04742194580078,13.540077209472656 L 69.04742292597219,13.54007725762539 L 69.047423896704,13.540077401619852 L 69.04742484864755,13.540077640069299 L 69.04742577263511,13.54007797067733 L 69.04742665976815,13.540078390260012 L 69.04742750150311,13.540078894776533 L 69.04742828973362,13.540079479368123 L 69.04742901686859,13.540080138404845 L 69.0474296759053,13.540080865539814 L 69.0474302604969,13.540081653770326 L 69.04743076501342,13.540082495505288 L 69.0474311845961,13.540083382638333 L 69.04743151520414,13.540084306625884 L 69.04743175365358,13.540085258569436 L 69.04743189764804,13.540086229301252 L 69.04743194580078,13.540087209472656 L 69.04743194580078,14.180066599121094 L 69.04743189764804,14.180067579292498 L 69.04743175365358,14.180068550024314 L 69.04743151520414,14.180069501967866 L 69.0474311845961,14.180070425955417 L 69.04743076501342,14.180071313088462 L 69.0474302604969,14.180072154823424 L 69.0474296759053,14.180072943053936 L 69.04742901686859,14.180073670188905 L 69.04742828973362,14.180074329225627 L 69.04742750150311,14.180074913817217 L 69.04742665976815,14.180075418333738 L 69.04742577263511,14.18007583791642 L 69.04742484864755,14.180076168524451 L 69.047423896704,14.180076406973898 L 69.04742292597219,14.18007655096836 L 69.04742194580078,14.180076599121094 L 68.90164398759194,14.180076599121094 L 68.90164295374329,14.180076545535371 L 68.90164193097455,14.180076385352487 L 68.90164093024686,14.180076120289147 L 68.90163996228519,14.18007575318607 L 68.90163903746331,14.180075287977555 L 68.90163816569269,14.180074729649311 L 68.90163735631619,14.180074084185021 L 68.8940844844469,14.173382735048929 L 68.8940838113086,14.173382079738673 L 68.89408320263516,14.173381364152656 L 68.8940826637984,14.17338059460625 L 68.89408219955382,14.173379777891068 L 68.89408181399861,14.173378921214999 L 68.89408151053546,14.17337803213861 L 68.89408129184255,14.173377118508416 L 68.89408115984999,14.17337618838763 L 68.89408111572266,14.173375249985002 L 68.89408111572266,13.546618341323592 z M 68.17291329593645,50.01251983642578 L 68.17291430114344,50.01251988707611 L 68.1729152961676,50.012520038514 L 68.1729162709293,50.012520289205376 L 68.17291721555414,50.01252063661072 L 68.17291812047299,50.01252107721079 L 68.17291897651896,50.01252160654228 L 68.17291977502025,50.01252221924303 L 68.17292050788801,50.01252290910634 L 68.17292116769823,50.012523669143846 L 68.17292174776699,50.01252449165632 L 68.17292224221815,50.012525368311664 L 68.17292264604289,50.01252629022929 L 68.2127528652864,50.117544946166426 L 68.21275322457753,50.11754609912262 L 68.21275344226697,50.11754728698179 L 68.23599991467363,50.30899690252902 L 68.23599998758662,50.30899810791015 L 68.23599991467363,50.30899931329128 L 68.2127534422584,50.50044892890916 L 68.21275322458574,50.50045011670022 L 68.21275286532759,50.500451269593356 L 68.14436383388951,50.68077736810631 L 68.1443633382868,50.68077846928563 L 68.1443627135654,50.680779502697995 L 68.03480598765121,50.839499427901245 L 68.03480524286942,50.83950037853536 L 68.0348043889253,50.839501232458396 L 67.89045043266835,50.96738353332934 L 67.89044948221485,50.967384277950245 L 67.89044844894755,50.967384902594794 L 67.71968186139206,51.05701390096864 L 67.7196807600817,51.057014396641534 L 67.71967960704914,51.05701475593534 L 67.53243373503466,51.10316438229788 L 67.53243254730063,51.10316459994739 L 67.53243134199221,51.10316467285156 L 67.339570305909,51.10316467285156 L 67.33956910064757,51.1031645999531 L 67.33956791295847,51.103164382320536 L 67.15231441164548,51.05701475595799 L 67.15231325847931,51.05701439662571 L 67.15231215704786,51.057013900883184 L 66.98155319890871,50.96738490257121 L 66.98155216572854,50.96738427795989 L 66.9815512153507,50.9673835333912 L 66.9307447441641,50.92237438641007 L 66.83719725902392,50.839501232458396 L 66.8371964050798,50.83950037853536 L 66.83719566029801,50.839499427901245 L 66.72763893438382,50.680779502697995 L 66.72763830966242,50.68077846928563 L 66.7276378140597,50.68077736810631 L 66.65924878262163,50.50045126959334 L 66.65924842336348,50.50045011670021 L 66.65924820569082,50.500448928909144 L 66.63600173327559,50.30899931329129 L 66.6360016603626,50.308998107910156 L 66.63600173327559,50.308996902529024 L 66.65924820568225,50.11754728698179 L 66.6592484233717,50.11754609912262 L 66.65924878266281,50.117544946166426 L 66.69622628749615,50.02004792176482 L 66.69907900190633,50.01252629022929 L 66.69907940573107,50.012525368311664 L 66.69907990018223,50.01252449165632 L 66.69908048025098,50.012523669143846 L 66.69908114006121,50.01252290910634 L 66.69908187292897,50.01252221924303 L 66.69908267143026,50.01252160654228 L 66.69908352747623,50.01252107721079 L 66.69908443239508,50.01252063661072 L 66.69908537701991,50.012520289205376 L 66.69908635178162,50.012520038514 L 66.69908734680578,50.01251988707611 L 66.69908835201277,50.01251983642578 L 68.17291329593645,50.01251983642578 z M 67.53243134199221,33.25883483886719 L 67.53243254730063,33.25883491177136 L 67.53243373503466,33.25883512942087 L 67.71967960704914,33.30498475578341 L 67.7196807600817,33.304985115077216 L 67.71968186139206,33.30498561075011 L 67.89044844881451,33.39461460905413 L 67.89044948220366,33.39461523378279 L 67.89045043275695,33.394615978515944 L 68.03480438914697,33.52250590880323 L 68.03480524289313,33.52250676255662 L 68.03480598752357,33.52250771297908 L 68.14436271347815,33.68122000894238 L 68.14436333827499,33.6812210424402 L 68.14436383392993,33.68122214371901 L 68.17649125007267,33.76593472827386 L 68.21275286532759,33.861548242125416 L 68.21275322458574,33.86154939501855 L 68.2127534422584,33.86155058280961 L 68.23599991467363,34.05300019842746 L 68.23599998758662,34.053001403808594 L 68.23599991467363,34.053002609189726 L 68.21275344226697,34.24445222473696 L 68.21275322457753,34.24445341259613 L 68.2127528652864,34.244454565552324 L 68.2051456138343,34.26451228398946 L 68.20514521000956,34.264513205907086 L 68.2051447155584,34.26451408256243 L 68.20514413548965,34.264514905074904 L 68.20514347567942,34.26451566511241 L 68.20514274281166,34.26451635497572 L 68.20514194431037,34.26451696767647 L 68.2051410882644,34.26451749700796 L 68.20514018334555,34.26451793760803 L 68.20513923872072,34.264518285013374 L 68.20513826395901,34.26451853570475 L 68.20513726893485,34.26451868714264 L 68.20513626372787,34.26451873779297 L 66.66686538422135,34.26451873779297 L 66.66686437901437,34.26451868714264 L 66.6668633839902,34.26451853570475 L 66.6668624092285,34.264518285013374 L 66.66686146460367,34.26451793760803 L 66.66686055968482,34.26451749700796 L 66.66685970363885,34.26451696767647 L 66.66685890513756,34.26451635497572 L 66.6668581722698,34.26451566511241 L 66.66685751245957,34.264514905074904 L 66.66685693239081,34.26451408256243 L 66.66685643793966,34.264513205907086 L 66.66685603411491,34.26451228398946 L 66.65924878266281,34.244454565552324 L 66.6592484233717,34.24445341259613 L 66.65924820568225,34.24445222473696 L 66.63600173327559,34.053002609189726 L 66.6360016603626,34.053001403808594 L 66.63600173327559,34.05300019842746 L 66.65924820569083,33.86155058280957 L 66.6592484233635,33.86154939501851 L 66.65924878262165,33.86154824212537 L 66.72763781401927,33.68122214371904 L 66.72763830967422,33.68122104244023 L 66.72763893447106,33.68122000894241 L 66.83719566042565,33.52250771297908 L 66.83719640505609,33.52250676255662 L 66.83719725880225,33.52250590880323 L 66.98155121526209,33.394615978454084 L 66.98155216573973,33.394615233773145 L 66.98155319904174,33.39461460907771 L 67.15231215704786,33.304985610835566 L 67.15231325847931,33.30498511509304 L 67.15231441164548,33.30498475576076 L 67.33956791295847,33.258835129398214 L 67.33956910064757,33.25883491176565 L 67.339570305909,33.25883483886719 L 67.53243134199221,33.25883483886719 z M 63.4219066964888,50.0737765356936 L 63.421905543621435,50.073776176446216 L 63.421904442460956,50.07377568085825 L 63.30522584918434,50.01253869100665 L 63.30522500132269,50.012538191327366 L 63.30522420668332,50.01253761072678 L 63.3052234729627,50.012536954828306 L 63.30522280726727,50.012536229984626 L 63.30522221604461,50.012535443216215 L 63.30522170502101,50.012534602143305 L 63.305221279145975,50.012533714912095 L 63.30522094254432,50.012532790115856 L 63.305220698476184,50.01253183671169 L 63.3052205493055,50.012530863933776 L 63.30522049647705,50.012529881203946 L 63.3052205405025,50.012528898040415 L 63.30522068095545,50.01252792396561 L 63.30522091647555,50.01252696841391 L 63.305221244781656,50.0125260406403 L 63.305221662693974,50.01252514963073 L 63.30522216616482,50.01252430401506 L 63.305222750317824,50.01252351198348 L 63.30522340949519,50.0125227812072 L 63.305224137312464,50.01252211876417 L 63.30522492672038,50.01252153107044 L 63.30522577007312,50.01252102381813 L 63.30522665920243,50.01252060192023 L 63.30522758549664,50.01252026946301 L 63.30522853998414,50.0125200296665 L 63.30522951342026,50.01251988485322 L 63.305230496376794,50.01251983642578 L 64.70876944258805,50.01251983642578 L 64.70877042554459,50.01251988485322 L 64.7087713989807,50.0125200296665 L 64.7087723534682,50.01252026946301 L 64.70877327976241,50.01252060192023 L 64.70877416889172,50.01252102381813 L 64.70877501224447,50.01252153107044 L 64.70877580165238,50.01252211876417 L 64.70877652946965,50.0125227812072 L 64.70877718864702,50.01252351198348 L 64.70877777280002,50.01252430401506 L 64.70877827627086,50.01252514963073 L 64.7087786941832,50.0125260406403 L 64.7087790224893,50.01252696841391 L 64.70877925800939,50.01252792396561 L 64.70877939846234,50.012528898040415 L 64.7087794424878,50.012529881203946 L 64.70877938965934,50.012530863933776 L 64.70877924048865,50.01253183671169 L 64.70877899642052,50.012532790115856 L 64.70877865981886,50.012533714912095 L 64.70877823394383,50.012534602143305 L 64.70877772292023,50.012535443216215 L 64.70877713169757,50.012536229984626 L 64.70877646600215,50.012536954828306 L 64.70877573228152,50.01253761072678 L 64.70877493764215,50.012538191327366 L 64.7087740897805,50.01253869100665 L 64.5920954965039,50.07377568085825 L 64.59209439534342,50.073776176446216 L 64.59209324247607,50.0737765356936 L 64.20588801976093,50.1689679100998 L 64.20588683196719,50.168968127771834 L 64.20588562659631,50.168968200683594 L 63.808114312368524,50.168968200683594 L 63.808113106997645,50.168968127771834 L 63.80811191920391,50.1689679100998 L 63.4219066964888,50.0737765356936 z M 63.51816058872447,34.26451873779297 L 63.51815962358553,34.26451869110934 L 63.51815866745783,34.264518551494334 L 63.518157729268474,34.26451832025149 L 63.51815681777707,34.26451799953987 L 63.51815594149396,34.264517592353855 L 63.51815510860077,34.26451710249525 L 63.51815432687399,34.264516534537705 L 63.51815360361238,34.2645158937841 L 63.51815294556885,34.264515186216975 L 63.51815235888736,34.26451441844269 L 63.51815184904561,34.26451359762973 L 63.518151420803825,34.26451273144181 L 63.51815107816041,34.264511827966295 L 63.51815082431451,34.26451089563867 L 63.51815066163623,34.264509943163844 L 63.518150591644435,34.264508979434794 L 63.518150614992635,34.26450801344961 L 63.51815073146283,34.26450705422741 L 63.51815093996757,34.2645061107242 L 63.5181512385601,34.264505191749215 L 63.51815162445255,34.26450430588266 L 63.518152094041945,34.26450346139564 L 63.51815264294385,34.26450266617289 L 63.51815326603333,34.26450192763919 L 63.518153957492764,34.26450125269002 L 63.51815471086619,34.2645006476272 L 63.51815551911956,34.264500118100045 L 63.51815637470644,34.26449966905258 L 63.51815726963845,34.264499304677464 L 63.518158195559856,34.264499028376754 L 63.80811191920391,34.19303160161895 L 63.808113106997645,34.193031383946916 L 63.808114312368524,34.193031311035156 L 64.20588562659631,34.193031311035156 L 64.20588683196719,34.193031383946916 L 64.20588801976093,34.19303160161895 L 64.495841743405,34.264499028376754 L 64.4958426693264,34.26449930467747 L 64.49584356425841,34.26449966905259 L 64.49584441984528,34.264500118100045 L 64.49584522809866,34.26450064762721 L 64.49584598147209,34.264501252690025 L 64.49584667293152,34.26450192763919 L 64.495847296021,34.264502666172895 L 64.4958478449229,34.26450346139564 L 64.4958483145123,34.26450430588267 L 64.49584870040475,34.264505191749215 L 64.49584899899727,34.264506110724206 L 64.49584920750202,34.26450705422741 L 64.49584932397221,34.26450801344961 L 64.49584934732042,34.2645089794348 L 64.49584927732862,34.264509943163844 L 64.49584911465034,34.26451089563868 L 64.49584886080444,34.264511827966295 L 64.49584851816101,34.26451273144181 L 64.49584808991924,34.26451359762973 L 64.49584758007748,34.26451441844269 L 64.49584699339599,34.264515186216975 L 64.49584633535245,34.2645158937841 L 64.49584561209086,34.264516534537705 L 64.49584483036408,34.26451710249525 L 64.49584399747089,34.26451759235386 L 64.49584312118778,34.26451799953987 L 64.49584220969638,34.26451832025149 L 64.495841271507,34.264518551494334 L 64.49584031537931,34.26451869110934 L 64.49583935024037,34.26451873779297 L 63.51816058872447,34.26451873779297 z M 34.41592407863505,60.779918677722506 L 34.415924077447016,60.77991868453641 L 34.4159240741222,60.77991872610856 L 34.415924072265625,67.79998357818214 L 34.415924023506136,67.79998456449455 L 34.415923877703186,67.79998554118855 L 34.41592363627862,67.7999864987395 L 34.415923301586794,67.79998742780948 L 34.41592287689158,67.7999883193383 L 34.415922366334556,67.79998916463185 L 34.415921774894635,67.79998995544693 L 34.415921108339475,67.79999068407157 L 34.41592037316925,67.79999134340032 L 34.415919576553264,67.79999192700346 L 34.41591872626003,67.79999242918977 L 34.41591783058153,67.79999284506195 L 34.41591689825231,67.79999317056449 L 34.41591593836437,67.7999934025231 L 34.41591496027843,67.79999353867576 L 34.415913973532675,67.79999357769472 L 34.415912987749756,67.79999351919946 L 34.28228872317857,67.78541577220298 L 34.282287611686456,67.78541558708382 L 34.2822865280767,67.7854152780956 L 34.15522110204785,67.74130286180628 L 34.15522005939081,67.74130243254241 L 34.15521907168722,67.74130188862809 L 34.04123783761303,67.66987670031466 L 34.04123691731073,67.66987604857772 L 34.041236076239976,67.66987529736711 L 33.9461296460212,67.57476123788231 L 33.94612889522175,67.57476039718284 L 33.94612824380079,67.57475947733168 L 33.874703055185414,67.46078587204165 L 33.87470251129205,67.46078488446024 L 33.87470208202303,67.460783841932 L 33.830582036607694,67.3337184163065 L 33.83058172743391,67.33371733214689 L 33.83058154225678,67.33371622007678 L 33.81600195100473,67.19999748858818 L 33.816001892089844,67.19999640469398 L 33.816001892089844,54.754002160995256 L 33.81600195100806,54.7540010770705 L 33.830581542255004,54.62028616027847 L 33.830581727432175,54.62028504822392 L 33.830582036602586,54.620283964079306 L 33.87470208204804,54.493218538367046 L 33.87470251128451,54.493217495906705 L 33.87470305513045,54.493216508385004 L 33.946128243720835,54.37923908850186 L 33.946128895237315,54.37923816850356 L 33.94612964616301,54.37923732768182 L 34.0412360762957,54.28412708291613 L 34.041236917303074,54.284126331784854 L 34.04123783752696,54.28412568011038 L 34.15521907199699,54.2127004915489 L 34.15522005937509,54.21269994779059 L 34.15522110167566,54.21269951860749 L 34.28227889806451,54.16857947318196 L 34.28227998230913,54.168579163967564 L 34.282281094469994,54.16857897877001 L 34.415999825864944,54.15399938752817 L 34.41600090975915,54.15399932861328 L 49.91000311838892,54.15399932861328 L 49.91000420262451,54.15399938756539 L 50.04371530472654,54.16858279345767 L 50.04371641662277,54.16858297863527 L 50.04371750061487,54.168583287771355 L 50.170782926404655,54.21270333324373 L 50.1707839689329,54.21270376251275 L 50.17078495651431,54.21270430640612 L 50.19380820796466,54.227132559975836 L 50.22777175883245,54.24841690050896 L 50.249050289495194,54.261751769246125 L 50.2847585617183,54.28412949496758 L 50.284759481647896,54.284130146451 L 50.28476032241073,54.28413089732979 L 50.37987438198155,54.37924114226759 L 50.379875133065916,54.37924198321607 L 50.37987578470733,54.379242903371235 L 50.451300973214884,54.49322032312221 L 50.45130151704072,54.49322131060197 L 50.45130194626678,54.49322235301637 L 50.46701270729672,54.538467877756666 L 50.49542199169231,54.620283964038244 L 50.49542230088303,54.62028504822536 L 50.49542248607041,54.620286160325286 L 50.51000207731225,54.7540010770705 L 50.51000213623047,54.754002160995256 L 50.51000213623047,67.19999640469398 L 50.51000207731558,67.19999748858818 L 50.49542248606353,67.33371622007678 L 50.4954223008864,67.33371733214689 L 50.49542199171262,67.3337184163065 L 50.45130194634733,67.46078384178789 L 50.4513015170132,67.46078488445194 L 50.451300973024985,67.46078587215278 L 50.37987578457527,67.57475184791244 L 50.3798751330955,67.57475276778302 L 50.37987438223122,67.57475360849143 L 50.2847603224665,67.66986766825616 L 50.28475948164028,67.66986841921428 L 50.28475856163226,67.66986907076017 L 50.17078495651426,67.74129425926775 L 50.17078396893285,67.7412948031611 L 50.170782926404605,67.74129523243012 L 50.04371750048005,67.78541527794928 L 50.04371641662548,67.78541558705442 L 50.043715304871995,67.78541577223241 L 49.91000420276336,67.80000299277513 L 49.910003118247495,67.80000305175781 L 49.65593193603516,67.80000305175781 L 49.65593095586376,67.80000300360507 L 49.65592998513194,67.80000285961061 L 49.655929033188386,67.80000262116117 L 49.655928109200836,67.80000229055314 L 49.65592722206779,67.80000187097045 L 49.65592638033283,67.80000136645393 L 49.65592559210232,67.80000078186234 L 49.655924864967346,67.80000012282562 L 49.655924205930624,67.79999939569065 L 49.655923621339035,67.79999860746014 L 49.655923116822514,67.79999776572518 L 49.65592269723984,67.79999687859214 L 49.6559223666318,67.79999595460458 L 49.655922128182354,67.79999500266103 L 49.65592198418789,67.79999403192922 L 49.655921936035156,67.79999305175781 L 49.655921936035156,60.7799187160762 L 49.65592193538737,60.77991870534747 L 49.65592193452793,60.7799186978098 L 49.65592193261726,60.7799186773774 L 49.65592193198163,60.77991867453825 L 49.655921922336724,60.7799186738097 L 49.31000755859366,60.7799186706543 L 49.31000657842226,60.779918622501555 L 49.31000560769046,60.779918478507085 L 49.31000465574691,60.77991824005763 L 49.310003731759366,60.779917909449594 L 49.31000284462633,60.77991748986691 L 49.31000200289137,60.77991698535038 L 49.31000121466087,60.77991640075879 L 49.31000048752591,60.77991574172207 L 49.3099998284892,60.779915014587104 L 49.30999924389761,60.779914226356595 L 49.30999873938109,60.779913384621636 L 49.30999831979842,60.779912497488596 L 49.30999798919039,60.77991157350105 L 49.30999775074095,60.779910621557505 L 49.309997606746485,60.779909650825694 L 49.30999755859375,60.779908670654294 L 49.30999755859375,55.35400027633679 L 49.309997550548324,55.354000150724346 L 49.309997547841625,55.35400010289022 L 49.30999751799776,55.35400010140302 L 49.30999739515761,55.35400009542735 L 49.3099973200969,55.35400009170529 L 35.01599908470951,55.354000091552734 L 35.015998887027415,55.35400010121996 L 35.01599885103009,55.354000102805315 L 35.0159988466697,55.35400017919406 L 35.01599884040609,55.35400027642676 L 35.01599884033203,60.779908670654294 L 35.015998792179296,60.779909650825694 L 35.01599864818483,60.77991062155751 L 35.01599840973539,60.77991157350107 L 35.01599807912735,60.77991249748862 L 35.015997659544674,60.779913384621665 L 35.01599715502815,60.779914226356624 L 35.01599657043656,60.77991501458713 L 35.01599591139984,60.77991574172211 L 35.01599518426487,60.77991640075883 L 35.01599439603436,60.77991698535042 L 35.0159935542994,60.77991748986694 L 35.01599266716635,60.779917909449615 L 35.0159917431788,60.779918240057654 L 35.01599079123525,60.7799184785071 L 35.01598982050343,60.77991862250156 L 35.01598884033203,60.7799186706543 L 34.415924225459094,60.77991867071492 L 34.41592421305379,60.779918671070476 L 34.41592407863505,60.779918677722506 z M 5.1868336068340195,71.53869599852266 L 5.186832419127451,71.53869621616181 L 5.186831213847738,71.5386962890625 L 4.813168786152262,71.5386962890625 L 4.813167580872549,71.53869621616181 L 4.8131663931659805,71.53869599852266 L 4.450364338318717,71.44928007576597 L 4.450363185233132,71.44927971645951 L 4.450362083874365,71.44927922076167 L 4.119500281534477,71.2756200710658 L 4.119499248255577,71.27561944640577 L 4.119498297793779,71.27561870176638 L 3.839810326609639,71.02784046583443 L 3.8398094727027923,71.02783961193767 L 3.8398087279505884,71.02783866133746 L 3.627545092830342,70.72032265455175 L 3.6275444681094675,70.72032162114117 L 3.627543972506868,70.72032051996376 L 3.495041324131413,70.37094229743862 L 3.4950409648690925,70.3709411445319 L 3.495040747195627,70.37093995672655 L 3.4500009092956687,70.0000012053594 L 3.450000836385309,70.0 L 3.4500009092956687,69.9999987946406 L 3.495040747195626,69.62906004327345 L 3.4950409648690917,69.6290588554681 L 3.495041324131412,69.62905770256138 L 3.627543972506868,69.27967948003624 L 3.6275444681094675,69.27967837885883 L 3.627545092830342,69.27967734544825 L 3.8398087279505884,68.97216133866254 L 3.8398094727027923,68.97216038806233 L 3.839810326609639,68.97215953416557 L 4.119498297793779,68.72438129823362 L 4.119499248255577,68.72438055359423 L 4.119500281534477,68.7243799289342 L 4.3129272720785465,68.62285607072947 L 4.450362083874365,68.55072077923833 L 4.450363185233132,68.55072028354049 L 4.450364338318717,68.55071992423403 L 4.8131663931659805,68.46130400147734 L 4.813167580872549,68.46130378383819 L 4.813168786152262,68.4613037109375 L 5.186831213847738,68.4613037109375 L 5.186832419127451,68.46130378383819 L 5.1868336068340195,68.46130400147734 L 5.549635661681283,68.55071992423403 L 5.549636814766868,68.55072028354049 L 5.549637916125635,68.55072077923833 L 5.6870727279214535,68.62285607072947 L 5.880499718465523,68.7243799289342 L 5.880500751744423,68.72438055359423 L 5.880501702206221,68.72438129823362 L 6.1462056838330135,68.95977098470762 L 6.160189673390361,68.97215953416557 L 6.160190527297208,68.97216038806233 L 6.160191272049412,68.97216133866254 L 6.372454907169658,69.27967734544825 L 6.372455531890532,69.27967837885883 L 6.372456027493132,69.27967948003624 L 6.504958675868588,69.62905770256138 L 6.504959035130908,69.6290588554681 L 6.504959252804374,69.62906004327345 L 6.549999090704332,69.9999987946406 L 6.54999916361469,70.0 L 6.549999090704332,70.0000012053594 L 6.5049592528043725,70.37093995672655 L 6.504959035130907,70.3709411445319 L 6.504958675868586,70.37094229743862 L 6.372456027493132,70.72032051996376 L 6.372455531890532,70.72032162114117 L 6.372454907169658,70.72032265455175 L 6.160191272049412,71.02783866133746 L 6.160190527297208,71.02783961193767 L 6.160189673390361,71.02784046583443 L 5.880501702206221,71.27561870176638 L 5.880500751744423,71.27561944640577 L 5.880499718465523,71.2756200710658 L 5.549637916125635,71.44927922076167 L 5.549636814766868,71.44927971645951 L 5.549635661681283,71.44928007576597 L 5.1868336068340195,71.53869599852266 z M 4.119500281785982,6.275627700542756 L 4.1194992482728185,6.275627075773975 L 4.119498297610726,6.2756263309739495 L 3.839810326539301,6.027840465796908 L 3.839809472696178,6.027839611944287 L 3.8398087279946456,6.027838661401283 L 3.719713050674768,5.85385057766423 L 3.627545092830343,5.720322654551755 L 3.6275444681094706,5.72032162114117 L 3.627543972506869,5.720320519963769 L 3.49504132413141,5.370942297438607 L 3.4950409648690903,5.370941144531889 L 3.4950407471956244,5.370939956726526 L 3.4500009092956683,5.000001205359393 L 3.4500008363853087,5.0 L 3.4500009092956683,4.999998794640607 L 3.4950407471956244,4.629060043273474 L 3.4950409648690903,4.629058855468111 L 3.49504132413141,4.629057702561393 L 3.627543972506869,4.279679480036231 L 3.6275444681094706,4.27967837885883 L 3.627545092830343,4.279677345448245 L 3.8398087279946456,3.9721613385987173 L 3.839809472696178,3.972160388055713 L 3.839810326539301,3.9721595342030924 L 4.119498297610725,3.7243736690260523 L 4.119499248272817,3.7243729242260275 L 4.11950028178598,3.724372299457245 L 4.450362084105451,3.5507284084619912 L 4.450363185220416,3.550727912903218 L 4.450364338037154,3.5507275536731626 L 4.81316639307411,3.461304001524779 L 4.813167580874764,3.4613037838501324 L 4.813168786252877,3.4613037109375 L 5.186831213747123,3.4613037109375 L 5.186832419125236,3.4613037838501324 L 5.18683360692589,3.461304001524779 L 5.549635661962846,3.5507275536731626 L 5.549636814779584,3.550727912903218 L 5.549637915894549,3.5507284084619912 L 5.88049971821402,3.7243722994572446 L 5.880500751727183,3.724372924226027 L 5.880501702389275,3.724373669026052 L 6.1601896734607005,3.9721595342030933 L 6.160190527303823,3.972160388055714 L 6.160191272005355,3.9721613385987182 L 6.372454907169657,4.279677345448245 L 6.372455531890529,4.27967837885883 L 6.372456027493131,4.279679480036231 L 6.456926525049585,4.502408253037541 L 6.504958675868589,4.629057702561391 L 6.504959035130909,4.629058855468109 L 6.504959252804375,4.629060043273472 L 6.535200311911619,4.878119125816738 L 6.549999090704332,4.999998794640607 L 6.54999916361469,5.0 L 6.549999090704332,5.000001205359393 L 6.504959252804375,5.370939956726528 L 6.504959035130909,5.370941144531891 L 6.504958675868589,5.370942297438609 L 6.372456027493131,5.720320519963769 L 6.372455531890529,5.72032162114117 L 6.372454907169657,5.720322654551755 L 6.286539757769261,5.844791848961997 L 6.160191272005354,6.027838661401283 L 6.160190527303822,6.027839611944287 L 6.1601896734607,6.027840465796908 L 5.880501702389274,6.2756263309739495 L 5.8805007517271815,6.275627075773975 L 5.880499718214018,6.275627700542756 L 5.549637915894551,6.449271591538007 L 5.549636814779586,6.449272087096781 L 5.5496356619628475,6.4492724463268365 L 5.186833606925888,6.538695998475221 L 5.186832419125234,6.538696216149868 L 5.186831213747121,6.5386962890625 L 4.813168786252879,6.5386962890625 L 4.813167580874766,6.538696216149868 L 4.813166393074112,6.538695998475221 L 4.776886659258153,6.529753759522109 L 4.4503643380371525,6.4492724463268365 L 4.450363185220414,6.449272087096781 L 4.450362084105449,6.449271591538007 L 4.119500281785982,6.275627700542756 z" />
</svg>