<?xml version="1.0" standalone="no"?>
<!DOCTYPE svg PUBLIC "-//W3C//DTD SVG 1.1//EN" 
  "http://www.w3.org/Graphics/SVG/1.1/DTD/svg11.dtd">
<svg width="148.49987792563027mm" height="38.0006675644608mm" viewBox="0 0 148.49987792563027 38.0006675644608"
     xmlns="http://www.w3.org/2000/svg" version="1.1">
<desc>Outline to SVG export</desc>
	<path fill-rule="evenodd" fill="#000000" stroke="#555555" stroke-width="0" opacity="1" d="M 8.291687557557722e-08,0.0006713867183751243 L 8.751242070897691e-09,0.0006713905840073615 L 3.675124010533819e-13,0.0006715011238789135 L 0.00012207031171939518,38.00066732902235 L 0.00012208158440413775,38.00066756086123 L 0.00012212798233997467,38.00066756374984 L 0.0001222078602177676,38.000667568722825 L 148.4998778721764,37.99992752075224 L 148.49987792121811,37.99992751852799 L 148.49987792216007,37.99992750587194 L 148.49987792563064,37.999927465722024 L 148.49974060058682,2.427660943695743e-07 L 148.49974059118534,4.926229958641619e-08 L 148.49974058964747,1.120879927634701e-08 L 148.49974058963073,1.1082350564971294e-08 L 148.49974055115862,8.541843696410436e-09 L 148.49974048634732,4.262029686854166e-09 L 8.291687557557722e-08,0.0006713867183751243 z M 125.11880569328373,24.28359541367785 L 125.11880490473489,24.2835959985526 L 125.11880406263391,24.283596503283935 L 124.85946742132103,24.422206414421044 L 124.85946653422064,24.422206833963436 L 124.85946561027109,24.422207164538893 L 124.5780649072427,24.507564258820462 L 124.57806395540658,24.507564497232686 L 124.57806298478695,24.50756464121164 L 124.2854318884423,24.536388300664925 L 124.28543090820312,24.53638834882433 L 124.28542992796395,24.536388300664925 L 123.99279883177066,24.50756464122655 L 123.9927978610033,24.50756449721821 L 123.99279690902661,24.50756425874792 L 123.71142672355913,24.422207164523133 L 123.7114257997587,24.422206833977487 L 123.71142491279748,24.422206414492738 L 123.45208827105729,24.28359650312725 L 123.45208742923006,24.283595998578818 L 123.45208664091643,24.283595413938883 L 123.22477798300163,24.097050337927772 L 123.22477725589046,24.09704967892329 L 123.2247765968714,24.097048951825332 L 123.0382238915214,23.86974029391604 L 123.03822330684392,23.869739505581613 L 123.03822280226345,23.86973866372802 L 122.89961289098481,23.610409651493782 L 122.8996124714514,23.610408764446404 L 122.89961214087491,23.610407840552195 L 122.81425504673328,23.329030026015392 L 122.81425480822465,23.329029073808133 L 122.81425466422341,23.32902810280418 L 122.7854462634386,23.036389376929524 L 122.78544621533229,23.036388397216875 L 122.78544626344109,23.036387417504347 L 122.81425466422962,22.743756320935233 L 122.81425480821616,22.74375535001798 L 122.81425504669328,22.743754397893465 L 122.89961214086703,22.462361324563947 L 122.89961247145844,22.462360400595173 L 122.89961289102067,22.462359513478212 L 123.03822280222427,22.203030501384333 L 123.03822330685045,22.20302965946231 L 123.03822389158664,22.20302887106908 L 123.22477659701703,21.97572784240527 L 123.22477725587348,21.97572711549274 L 123.22477798278837,21.97572645663891 L 123.45207138201948,21.78918138062522 L 123.45207217045072,21.789180795867885 L 123.45207301241481,21.789180291228007 L 123.71140965387428,21.65057038001255 L 123.71141054097467,21.650569960470158 L 123.71141146492423,21.6505696298947 L 123.99281216795261,21.56521253561313 L 123.99281311978874,21.565212297200908 L 123.99281409040836,21.565212153221953 L 124.28544518675301,21.53638849376867 L 124.28544616699219,21.536388445609262 L 124.28544714723137,21.53638849376867 L 124.57807824342466,21.565212153207042 L 124.57807921419202,21.565212297215385 L 124.5780801661687,21.565212535685674 L 124.85945035163618,21.65056962991046 L 124.85945127543661,21.650569960456107 L 124.85945216239783,21.650570379940856 L 125.11878880399144,21.789180291228007 L 125.11878964595553,21.789180795867885 L 125.11879043438677,21.78918138062522 L 125.34608383355365,21.975726456586195 L 125.34608456052675,21.97572711549822 L 125.34608521942941,21.975727842479788 L 125.53263792488485,22.203036500517555 L 125.53263850956233,22.20303728885198 L 125.5326390141428,22.203038130705576 L 125.67124892540349,22.46236714290625 L 125.6712493449513,22.462368029988422 L 125.67124967553526,22.46236895391991 L 125.7566067698462,22.743754398358217 L 125.75660700823708,22.743755350011376 L 125.75660715223047,22.74375632044419 L 125.78544607033982,23.036387416476522 L 125.78544611854986,23.036388397216903 L 125.7854460703423,23.036389377957406 L 125.75660715222924,23.32902810337086 L 125.75660700823583,23.32902907381652 L 125.75660676984248,23.329030025482158 L 125.67124967553526,23.610415469908215 L 125.6712493449513,23.610416393839703 L 125.67124892540349,23.610417280921876 L 125.53263901418198,23.86974629304926 L 125.5326385095558,23.869747134971284 L 125.53263792481961,23.869747923364514 L 125.34608521928378,24.0970489521568 L 125.34608456054373,24.09704967895293 L 125.34608383376693,24.09705033771429 L 125.11880569328373,24.28359541367785 z M 125.34610047868942,35.78032226668504 L 125.34609981925779,35.78032299430682 L 125.34609909164075,35.7803236537437 L 125.11877517503594,35.96686110041398 L 125.11877438721012,35.966861684665545 L 125.11877354593787,35.96686218892779 L 124.8594674216074,36.10547972961745 L 124.85946653420544,36.10548014936095 L 124.85946560992417,36.10548048007381 L 124.57806490736743,36.190837574212324 L 124.57806395540467,36.19083781264973 L 124.57806298465471,36.190837956628805 L 124.28543188831505,36.219653986738166 L 124.28543090820374,36.21965403487226 L 124.28542992809366,36.219653986712856 L 123.9927988314946,36.190830327234515 L 123.99279786099672,36.19083018327978 L 123.99279690927642,36.19082994491541 L 123.71139620637273,36.10548048001508 L 123.71139528219457,36.105480149371274 L 123.7113943948834,36.1054797297173 L 123.45205775342393,35.966862189158434 L 123.45205691164989,35.96686168461857 L 123.45205612338545,35.96686109999633 L 123.22476272446741,35.780323653583004 L 123.22476199712655,35.780322994331 L 123.22476133792767,35.780322266941994 L 123.03823914999245,35.55301360908276 L 123.03823856560105,35.553012821034976 L 123.03823806124343,35.55301197951491 L 122.89962814955547,35.29368296651484 L 122.89962773019768,35.293682079891425 L 122.89962739971203,35.29368115645152 L 122.81423978816528,35.012295712467676 L 122.81423954947971,35.01229475983223 L 122.81423940538895,35.012293788378194 L 122.78543100464954,34.719655062964684 L 122.78543095654322,34.71965408325203 L 122.78543100465203,34.71965310353951 L 122.81423940538771,34.42702200750721 L 122.81423954947847,34.42702103606601 L 122.81423978816156,34.427020083443026 L 122.89962739971203,34.14563463944692 L 122.89962773019768,34.14563371600701 L 122.89962814955547,34.1456328293836 L 123.03823806120425,33.88630381645681 L 123.03823856560759,33.88630297486832 L 123.03823915005768,33.886302186761725 L 123.22476133782125,33.65900115845512 L 123.22476199713577,33.65900043097329 L 123.22476272461047,33.658999771650926 L 123.45208664121526,33.47245469563724 L 123.45208742920786,33.47245411125059 L 123.45208827067017,33.47245360688832 L 123.71139439500062,33.33384369554209 L 123.7113952821918,33.33384327591019 L 123.71139620624446,33.33384294526568 L 123.99279690905072,33.24847822170806 L 123.99279786100269,33.24847798324799 L 123.99279883174407,33.24847783924482 L 124.28542992796395,33.219654179803825 L 124.28543090820312,33.21965413164441 L 124.2854318884423,33.219654179803825 L 124.57806298466218,33.24847783924482 L 124.57806395540356,33.24847798324799 L 124.57806490735553,33.24847822170806 L 124.85946561039817,33.33384294533739 L 124.85946653422484,33.333843275888285 L 124.85946742121052,33.33384369538317 L 125.1188040627805,33.47245360665769 L 125.1188049047446,33.472454111297566 L 125.11880569317583,33.472454696054896 L 125.34609909209387,33.658999771811644 L 125.3460998192924,33.65900043094913 L 125.34610047837415,33.65900115819817 L 125.53262266634857,33.886302186761725 L 125.53262325079866,33.88630297486832 L 125.532623755202,33.88630381645681 L 125.67123366683283,34.14563282935002 L 125.67123408620503,34.145633716008234 L 125.67123441669816,34.14563463948543 L 125.75662202826285,34.42702771287184 L 125.7566222669314,34.42702866545967 L 125.75662241101482,34.427029636863935 L 125.78543081175296,34.71966073292125 L 125.78543085986176,34.719661712646484 L 125.78543081175296,34.71966269237172 L 125.75662241101482,35.012293788429034 L 125.7566222669314,35.012294759833296 L 125.75662202826285,35.01229571242113 L 125.67123441671609,35.29368878574845 L 125.67123408619956,35.29368970928214 L 125.67123366679311,35.29369059599173 L 125.53262375514433,35.55301197957506 L 125.53262325081039,35.5530128210381 L 125.53262266645297,35.55301360903504 L 125.34610047868942,35.78032226668504 z M 29.741027827036255,16.47484969215196 L 29.741027996625995,16.474849550524485 L 30.363708311545956,15.905857254817569 L 30.36370846463052,15.905857100205045 L 30.363708247305816,15.905857110686824 L 30.07107641964119,15.934680842173865 L 30.071075439452876,15.934680890333272 L 30.071074459264075,15.934680842183836 L 29.778412845494636,15.905857182725521 L 29.778411874675914,15.905857038717132 L 29.778410922649343,15.905856800236919 L 29.497040737230993,15.820499706027036 L 29.49703981343057,15.820499375481386 L 29.49703892646935,15.820498955996639 L 29.23770228487573,15.681889044709488 L 29.237701442911636,15.681888540069611 L 29.237700654480406,15.681887955312277 L 29.010407255626625,15.495342879608266 L 29.01040652836989,15.49534222041259 L 29.01040586924192,15.495341493094497 L 28.823883681203267,15.268032835109235 L 28.823883096845844,15.2680320471123 L 28.82388259251191,15.268031205649256 L 28.68527268084521,15.008709822032396 L 28.685272261453175,15.008708935357616 L 28.68527193094411,15.008708011861213 L 28.599884319415285,14.727322567936422 L 28.59988408072972,14.727321615300976 L 28.59988393663895,14.727320643846939 L 28.571075535899542,14.434681918433412 L 28.571075487793234,14.434680938720764 L 28.571075535902033,14.434679959008237 L 28.599883936686833,14.142048862477013 L 28.599884080680717,14.142047891522829 L 28.599884319172343,14.142046939363171 L 28.685241413349846,13.860661495364726 L 28.685241743910403,13.860660571489733 L 28.685242163423972,13.860659684458927 L 28.823852074857644,13.601323042591169 L 28.823852579284658,13.601322200945665 L 28.823853163768714,13.601321412788224 L 29.010375351493128,13.374020384529329 L 29.010376010807647,13.374019657047503 L 29.010376738282357,13.374018997725132 L 29.237700654887128,13.187473921711463 L 29.237701442879736,13.187473337324814 L 29.237702284342042,13.187472832962545 L 29.49700840856198,13.04886292167539 L 29.49700929586784,13.048862501995984 L 29.497010220043396,13.048862171326913 L 29.77841092283542,12.963505077117034 L 29.77841187467155,12.96350483870481 L 29.778412845291182,12.963504694725856 L 30.071043941686934,12.934681035267541 L 30.07104492187525,12.934680987108134 L 30.07104590206405,12.93468103525757 L 30.36370751583349,12.963504694715885 L 30.36370848665221,12.963504838724274 L 30.363709438678782,12.963505077204488 L 30.645079624097132,13.04886217141437 L 30.645080547897557,13.04886250196002 L 30.645081434858774,13.048862921444767 L 30.904418076452394,13.187472832731919 L 30.90441891841649,13.187473337371795 L 30.90441970684772,13.18747392212913 L 31.1317131057015,13.37401899783314 L 31.131713832958233,13.374019657028816 L 31.131714492086203,13.37402038434691 L 31.318236680085693,13.60132904228444 L 31.31823726447709,13.601329830332224 L 31.318237768834702,13.601330671852285 L 31.456847680758955,13.860659685294452 L 31.456848099926695,13.860660571459142 L 31.45684843031399,13.86066149440751 L 31.542266559255403,14.142046938460492 L 31.542266798130004,14.142047891546747 L 31.542266942317656,14.142048863474937 L 31.571075343004217,14.434679959008237 L 31.571075391113016,14.434680938720764 L 31.571075343006708,14.434681918433412 L 31.5422669422673,14.727320643846939 L 31.54226679817653,14.727321615300976 L 31.542266559490965,14.727322567936422 L 31.456878947944205,15.008708011920303 L 31.456878617458546,15.00870893536021 L 31.45687819810076,15.00870982198362 L 31.318268286452003,15.26803883491036 L 31.31826778204867,15.268039676498848 L 31.318267197598587,15.268040464605443 L 31.131745009834997,15.495341492912077 L 31.131744350520478,15.495342220393903 L 31.131743623045768,15.495342879716274 L 30.904419706440997,15.681887955729943 L 30.90441891844839,15.681888540116592 L 30.904418076986083,15.681889044478861 L 30.645111294554102,15.820499307607736 L 30.645111092711208,15.820499428225943 L 30.645110988485744,15.820499639001476 L 30.364410499683576,16.46372581617102 L 30.364410416349653,16.463726036335594 L 30.364410637953945,16.463726115761872 L 30.645079623721834,16.54886217132847 L 30.64508054788265,16.548862501994595 L 30.645081435174756,16.548862921668302 L 30.90438755940795,16.68747283296254 L 30.904388400870253,16.68747333732481 L 30.904389188862865,16.687473921711458 L 31.131713105716518,16.87401899792936 L 31.131713832965772,16.874019657026285 L 31.131714492101217,16.874020384240623 L 31.318267197345808,17.101329042021472 L 31.318267782023288,17.101329830355898 L 31.318268286603754,17.101330672209492 L 31.456878197628065,17.360659683967935 L 31.45687861736591,17.3606605715089 L 31.4568789480481,17.360661495932025 L 31.542205524968104,17.642046940313598 L 31.542205763167605,17.642047891503378 L 31.542205907064112,17.642048861449144 L 31.571044825222625,17.934679957980375 L 31.57104487343267,17.934680938720756 L 31.571044825225123,17.93468191946126 L 31.542205907062876,18.227320645373773 L 31.542205763166354,18.227321615332386 L 31.54220552496437,18.227322566534642 L 31.4568789480481,18.508708010903913 L 31.45687861736591,18.508708935327036 L 31.456878197628065,18.508709822868003 L 31.318268286833828,18.768038834195995 L 31.318267781984797,18.768039676451505 L 31.318267196962523,18.7680404651313 L 31.131683974076136,18.99534149389537 L 31.131683315445013,18.995342220471453 L 31.131682588813728,18.99534287904168 L 30.904389189269597,19.18188795531227 L 30.904388400838368,19.181888540069604 L 30.904387558874273,19.181889044709482 L 30.645050917280642,19.32049895599664 L 30.645050030319425,19.320499375481386 L 30.645049106519,19.320499706027036 L 30.363678921051516,19.405856800251826 L 30.36367796907483,19.405857038722115 L 30.363676998307458,19.405857182730458 L 30.071045902114175,19.43468084216883 L 30.071044921875,19.434680890328238 L 30.071043941635825,19.43468084216883 L 29.778412845291182,19.40585718271555 L 29.77841187467155,19.405857038736595 L 29.77841092283542,19.405856800324372 L 29.497010220043396,19.320499706114493 L 29.49700929586784,19.320499375445422 L 29.49700840856198,19.320498955766016 L 29.23770228434205,19.181889044478865 L 29.237701442879747,19.181888540116596 L 29.237700654887135,19.181887955729948 L 29.010376738033482,18.995342879512044 L 29.010376010784228,18.99534222041512 L 29.010375351648783,18.995341493200783 L 28.823822646365027,18.76803283537221 L 28.823822061721522,18.768032047088635 L 28.823821557164734,18.768031205292058 L 28.68521164616167,18.50870982291677 L 28.685211226389573,18.50870893532444 L 28.68521089568398,18.508708010844813 L 28.59988431878563,18.227322566534642 L 28.599884080583646,18.227321615332386 L 28.599883936687124,18.227320645373773 L 28.571045018524877,17.93468191946126 L 28.57104497031733,17.934680938720756 L 28.571045018527375,17.934679957980375 L 28.599883936685888,17.642048861449144 L 28.599884080582395,17.642047891503378 L 28.599884318781896,17.642046940313598 L 28.685210895719816,17.360661495872943 L 28.68521122637861,17.36066057150632 L 28.685211646082198,17.360659684016717 L 28.823821556897702,17.101323043305545 L 28.823822061770407,17.101322200993017 L 28.82382264682666,17.101321412262376 L 29.010405869673864,16.874020383546036 L 29.010406528304987,16.874019656969953 L 29.010407254936272,16.874018998399727 L 29.237700654480403,16.687473922129136 L 29.237701442911632,16.687473337371802 L 29.237702284875727,16.687472832731924 L 29.497038926402432,16.548862921480534 L 29.497039813433087,16.54886250196703 L 29.497040737307916,16.548862171406505 L 29.74102761866872,16.47484976565037 L 29.741027827036255,16.47484969215196 z M 28.68521164645907,22.008709823281755 L 28.6852112264306,22.00870893530505 L 28.68521089554989,22.008708010402625 L 28.59988431878563,21.727322566534642 L 28.599884080583646,21.727321615332386 L 28.599883936687124,21.727320645373773 L 28.571045018524877,21.43468191946126 L 28.57104497031733,21.434680938720756 L 28.571045018527375,21.434679957980375 L 28.599883936685888,21.142048861449144 L 28.599884080582395,21.142047891503378 L 28.599884318781896,21.142046940313598 L 28.685210895719816,20.860661495872943 L 28.68521122637861,20.86066057150632 L 28.685211646082198,20.860659684016717 L 28.823821556897702,20.601323043305545 L 28.823822061770407,20.601322200993017 L 28.82382264682666,20.601321412262376 L 29.010405869673864,20.374020383546036 L 29.010406528304987,20.374019656969953 L 29.010407254936272,20.374018998399727 L 29.237700654480403,20.187473922129136 L 29.237701442911632,20.187473337371802 L 29.237702284875727,20.187472832731924 L 29.497038926469358,20.048862921444766 L 29.497039813430575,20.04886250196002 L 29.497040737231,20.04886217141437 L 29.778410922698484,19.96350507718958 L 29.77841187467517,19.96350483871929 L 29.778412845442542,19.96350469471095 L 30.071043941635825,19.934681035272575 L 30.071044921875,19.93468098711317 L 30.071045902114175,19.934681035272575 L 30.363677004193256,19.963504695290688 L 30.363677969215065,19.963504838157853 L 30.363678915724247,19.96350507437487 L 30.36441039491438,19.96372604204689 L 30.364410405867645,19.96372604536253 L 30.645079623721834,20.04886217132847 L 30.64508054788265,20.048862501994595 L 30.645081435174756,20.048862921668302 L 30.90438755940795,20.18747283296254 L 30.904388400870253,20.18747333732481 L 30.904389188862865,20.187473921711458 L 31.131713105716518,20.37401899792936 L 31.131713832965772,20.374019657026285 L 31.131714492101217,20.374020384240623 L 31.318267197345808,20.601329042021472 L 31.318267782023288,20.601329830355898 L 31.318268286603754,20.601330672209492 L 31.456878197628065,20.860659683967935 L 31.45687861736591,20.8606605715089 L 31.4568789480481,20.860661495932025 L 31.542205524968104,21.142046940313598 L 31.542205763167605,21.142047891503378 L 31.542205907064112,21.142048861449144 L 31.571044825222625,21.434679957980375 L 31.57104487343267,21.434680938720756 L 31.571044825225123,21.43468191946126 L 31.542205907062876,21.727320645373773 L 31.542205763166354,21.727321615332386 L 31.54220552496437,21.727322566534642 L 31.456878947914,22.008708011346137 L 31.456878617406918,22.008708935346416 L 31.456878197925406,22.008709822502944 L 31.318298804550185,22.268038833745905 L 31.318298299523992,22.268039676428163 L 31.31829771424744,22.268040465488493 L 31.13171449165426,22.49534149389537 L 31.131713833023138,22.495342220471453 L 31.131713106391853,22.49534287904168 L 30.904419706847722,22.68188795531227 L 30.904418918416493,22.681888540069604 L 30.904418076452398,22.681889044709482 L 30.645081434858767,22.82049895599664 L 30.64508054789755,22.820499375481386 L 30.645079624097125,22.820499706027036 L 30.36370943862964,22.905856800251826 L 30.363708486652953,22.905857038722115 L 30.363707515885583,22.905857182730458 L 30.0710764196923,22.93468084216883 L 30.071075439453125,22.934680890328238 L 30.07107445921395,22.93468084216883 L 29.778443362869307,22.90585718271555 L 29.778442392249676,22.905857038736595 L 29.778441440413545,22.905856800324372 L 29.49704073762152,22.820499706114493 L 29.497039813445966,22.820499375445422 L 29.497038926140107,22.820498955766016 L 29.237732801920174,22.681889044478865 L 29.23773196045787,22.681888540116596 L 29.23773117246526,22.681887955729948 L 29.010407255611607,22.495342879512044 L 29.010406528362353,22.49534222041512 L 29.010405869226908,22.495341493200783 L 28.823853163650007,22.26803283501502 L 28.82385257926076,22.268032047111944 L 28.823852074881206,22.26803120574204 L 28.68521164645907,22.008709823281755 z M 29.77841284529119,5.227069951270238 L 29.77841187467156,5.227069807291285 L 29.778410922835427,5.227069568879061 L 29.49701022015394,5.141712474702712 L 29.497009295872676,5.141712143989854 L 29.497008408470716,5.141711724246355 L 29.237702284140255,5.003094183556696 L 29.237701442868005,5.003093679294452 L 29.23770065504219,5.0030930950428845 L 29.01037673809217,4.8165556480893335 L 29.010376010787883,4.816554988965187 L 29.01037535160464,4.816554261714463 L 28.823822646436817,4.589249418698858 L 28.823822061729988,4.589248630335031 L 28.82382155712666,4.589247788447221 L 28.685211646130895,4.329918776742185 L 28.68521122638585,4.329917889183828 L 28.685210895699935,4.329916964742067 L 28.599884318772837,4.048527705665383 L 28.599884080580587,4.048526754493171 L 28.599883936687753,4.048525784565865 L 28.571045018528004,3.755894688022116 L 28.57104497031796,3.7558937072753737 L 28.571045018526753,3.7558927265285704 L 28.59988393668837,3.4632578152941518 L 28.599884080581216,3.463256845360424 L 28.599884318774706,3.463255894181972 L 28.685210895690975,3.181866635140994 L 28.68521122638859,3.181865710670984 L 28.685211646150762,3.1818648230869435 L 28.823821556944996,2.9225396264306576 L 28.823822061759323,2.9225387842378745 L 28.823822646735252,2.9225379956129007 L 29.010405869653766,2.6952331521379764 L 29.01040652830801,2.6952324255273745 L 29.010407254968396,2.6952317669280514 L 29.23770065452505,2.5086866906471776 L 29.237701442908715,2.508686105921627 L 29.23770228481947,2.5086856013038976 L 29.49703892642372,2.3700718753393524 L 29.497039813432988,2.3700714558225666 L 29.497040737286266,2.3700711252550244 L 29.77841092263612,2.2847140310659206 L 29.77841187467612,2.2847137925830374 L 29.77841284550866,2.2847136485746358 L 30.07104394176431,2.255893803801831 L 30.071044921875,2.255893755655077 L 30.07104590198569,2.255893803801831 L 30.3636769983927,2.2847136485895425 L 30.363677969077504,2.2847137925685574 L 30.363678920976948,2.2847140309933742 L 30.645079623596057,2.3700711251508033 L 30.64508054787732,2.370071455863661 L 30.64508143527928,2.3700718756071595 L 30.9043875595651,2.5086894162729547 L 30.904388400879043,2.508689920563055 L 30.904389188740687,2.50869050485038 L 31.131713105735344,2.695231766512276 L 31.131713832968465,2.695232425579166 L 31.131714492093142,2.6952331527599154 L 31.318267197280562,2.922534181127688 L 31.31826778201674,2.9225349695209184 L 31.31826828664293,2.922535811442943 L 31.456878197619105,3.1818648231113307 L 31.45687861736415,3.1818657106696886 L 31.456878948050065,3.1818666351114486 L 31.542205524975294,3.463255894181972 L 31.542205763168784,3.463256845360424 L 31.54220590706163,3.4632578152941518 L 31.571044825223247,3.7558927265285704 L 31.57104487343204,3.7558937072753737 L 31.571044825221996,3.755894688022116 L 31.542205907062247,4.048525784565865 L 31.542205763169413,4.048526754493171 L 31.542205524977163,4.048527705665383 L 31.456878948059025,4.32991696471252 L 31.45687861736141,4.32991788918253 L 31.456878197599238,4.329918776766571 L 31.31826828678541,4.589243973459516 L 31.31826778199395,4.589244815618086 L 31.31826719704737,4.589245604213658 L 31.131683974148466,4.816554262336406 L 31.131683315435648,4.816554989016979 L 31.131682588704106,4.816555647673566 L 30.90438918919208,5.003096909246094 L 30.904388400844244,5.003097493935882 L 30.904387558975177,5.003097998525754 L 30.64505091732628,5.141711724514163 L 30.645050030317012,5.141712144030949 L 30.645049106463734,5.141712474598491 L 30.363678921051505,5.227069568806517 L 30.363677969074818,5.227069807276806 L 30.363676998307447,5.227069951285147 L 30.071045902114175,5.255893610723518 L 30.071044921875,5.255893658882926 L 30.071043941635825,5.255893610723518 L 29.77841284529119,5.227069951270238 z" />
</svg>